<svg id="Colors" xmlns="http://www.w3.org/2000/svg" xmlns:xlink="http://www.w3.org/1999/xlink" viewBox="0 0 142.86 200"><defs><style>.cls-1,.cls-4{fill:#4f544b;}.cls-1{stroke:#e0e1da;}.cls-1,.cls-2{stroke-miterlimit:10;stroke-width:2px;}.cls-2{fill:#e0e1da;stroke:#4f544b;}.cls-3{fill:#f3f3f0;}</style><symbol id="Club" data-name="Club" viewBox="0 0 31.35 30.69"><path class="cls-1" d="M30.08,15.89c-1-3-4.91-4.93-9.14-3.92a6.54,6.54,0,0,0,1.53-6.91C21.44,2.4,18.68,1,15.67,1S9.91,2.4,8.88,5.06A6.54,6.54,0,0,0,10.41,12c-4.23-1-8.11,1-9.14,3.92S2.54,21.81,2.67,22c2.6,3.16,6.82,2.52,7,2.49a9,9,0,0,0,2.91-1.11l-.41,1.37A14,14,0,0,1,10,29.29c-.08.09-.22.2-.14.33s.22.05.33.05H21.21c.11,0,.27.06.33-.05s-.06-.24-.14-.33a13.76,13.76,0,0,1-2.24-4.58c-.13-.43-.26-.86-.42-1.37a9.19,9.19,0,0,0,2.92,1.11c.2,0,4.42.67,7-2.49C28.81,21.81,31.13,18.91,30.08,15.89Z"/></symbol><symbol id="Club_Inverted" data-name="Club Inverted" viewBox="0 0 25.42 24.89"><path class="cls-2" d="M24.2,12.88c-.82-2.36-3.91-3.94-7.29-3.13a5.21,5.21,0,0,0,1.22-5.51A5.54,5.54,0,0,0,12.71,1c-2.42,0-4.6,1.11-5.42,3.24A5.19,5.19,0,0,0,8.51,9.75c-3.38-.81-6.47.77-7.29,3.13s1,4.72,1.11,4.84a6.38,6.38,0,0,0,5.6,2,7.18,7.18,0,0,0,2.33-.89c-.13.41-.23.76-.34,1.1a10.88,10.88,0,0,1-1.78,3.65c-.06.08-.18.16-.11.27s.17,0,.26,0h8.83c.09,0,.22,0,.27,0s-.05-.19-.11-.27a10.9,10.9,0,0,1-1.79-3.65c-.1-.34-.21-.69-.33-1.1a7.18,7.18,0,0,0,2.33.89,6.38,6.38,0,0,0,5.6-2C23.19,17.6,25,15.29,24.2,12.88Z"/></symbol></defs><rect class="cls-3" width="142.86" height="200" rx="20.1"/><use width="31.35" height="30.69" transform="translate(55.75 12.95)" xlink:href="#Club"/><use width="31.35" height="30.69" transform="translate(55.75 47.96)" xlink:href="#Club"/><use width="31.35" height="30.69" transform="translate(104.16 47.96)" xlink:href="#Club"/><use width="31.35" height="30.69" transform="translate(80.61 82.56)" xlink:href="#Club"/><path class="cls-4" d="M26.34,37.31v1H15.27v-1l4.32-.72H22Zm-4.65-18.6.42.3L22,23.3V32c0,2.1,0,4.23.09,6.33H19.5c.06-2.1.09-4.23.09-6.33V21.17l-4,.33V20.3Z"/><path class="cls-4" d="M41.67,28.7c0,7.44-3.09,10.05-6.21,10.05s-6.27-2.61-6.27-10,3.09-10.14,6.27-10.14S41.67,21.23,41.67,28.7Zm-6.21,8.7c1.83,0,3.54-1.77,3.54-8.7s-1.71-8.79-3.54-8.79-3.6,1.74-3.6,8.79S33.57,37.4,35.46,37.4Z"/><use width="25.42" height="24.89" transform="translate(10.31 43.74)" xlink:href="#Club_Inverted"/><path class="cls-4" d="M116.52,162.69v-1.05h11.07v1.05l-4.32.72h-2.4Zm4.65,18.6-.42-.31.12-4.28V168c0-2.09,0-4.22-.09-6.32h2.58c-.06,2.1-.09,4.23-.09,6.32v10.87l4-.33v1.2Z"/><path class="cls-4" d="M101.19,171.3c0-7.44,3.09-10.05,6.21-10.05s6.27,2.61,6.27,10.05-3.09,10.14-6.27,10.14S101.19,178.77,101.19,171.3Zm6.21-8.7c-1.83,0-3.54,1.77-3.54,8.7s1.71,8.79,3.54,8.79,3.6-1.74,3.6-8.79S109.29,162.6,107.4,162.6Z"/><use width="31.35" height="30.69" transform="translate(87.1 187.05) rotate(180)" xlink:href="#Club"/><use width="31.35" height="30.69" transform="translate(87.1 152.04) rotate(180)" xlink:href="#Club"/><use width="31.35" height="30.69" transform="translate(38.69 152.04) rotate(180)" xlink:href="#Club"/><use width="31.35" height="30.69" transform="translate(62.14 117.44) rotate(180)" xlink:href="#Club"/><use width="31.35" height="30.69" transform="translate(38.69 187.05) rotate(180)" xlink:href="#Club"/><use width="25.42" height="24.89" transform="translate(132.55 156.26) rotate(180)" xlink:href="#Club_Inverted"/><use width="31.35" height="30.69" transform="translate(104.16 12.95)" xlink:href="#Club"/></svg>