<svg id="Colors" xmlns="http://www.w3.org/2000/svg" xmlns:xlink="http://www.w3.org/1999/xlink" viewBox="0 0 142.86 200"><defs><style>.cls-1{fill:#0d3b69;stroke:#e0e1da;}.cls-1,.cls-2{stroke-miterlimit:10;stroke-width:2px;}.cls-2{fill:#e0e1da;stroke:#0d3b69;}.cls-3{fill:#f3f3f0;}.cls-4{fill:#264066;}</style><symbol id="Diamond" data-name="Diamond" viewBox="0 0 26.14 28.02"><path class="cls-1" d="M25,13.5C20.41,10.57,14.76,3,13.38,1.16a.38.38,0,0,0-.62,0C11.38,3,5.74,10.57,1.17,13.5a.36.36,0,0,0,0,.61c4.32,2.72,10.18,10.76,11.59,12.75a.38.38,0,0,0,.63,0c1.41-2,7.27-10,11.59-12.75A.36.36,0,0,0,25,13.5Z"/></symbol><symbol id="Diamond_Inverted" data-name="Diamond Inverted" viewBox="0 0 21.79 23.33"><path class="cls-2" d="M20.66,11.25c-3.75-2.4-8.38-8.57-9.51-10.12a.32.32,0,0,0-.51,0C9.51,2.68,4.88,8.85,1.14,11.25a.29.29,0,0,0,0,.5C4.68,14,9.48,20.57,10.64,22.2a.32.32,0,0,0,.52,0c1.15-1.63,6-8.22,9.5-10.45A.3.3,0,0,0,20.66,11.25Z"/></symbol></defs><rect class="cls-3" width="142.86" height="200" rx="20.1"/><use width="26.14" height="28.02" transform="translate(58.36 14.29)" xlink:href="#Diamond"/><use width="26.14" height="28.02" transform="translate(58.36 49.29)" xlink:href="#Diamond"/><use width="26.14" height="28.02" transform="translate(106.77 49.29)" xlink:href="#Diamond"/><use width="26.14" height="28.02" transform="translate(83.21 83.9)" xlink:href="#Diamond"/><path class="cls-4" d="M26.34,37.31v1H15.27v-1l4.32-.72H22Zm-4.65-18.6.42.3L22,23.3V32c0,2.1,0,4.23.09,6.33H19.5c.06-2.1.09-4.23.09-6.33V21.17l-4,.33V20.3Z"/><path class="cls-4" d="M41.67,28.7c0,7.44-3.09,10.05-6.21,10.05s-6.27-2.61-6.27-10,3.09-10.14,6.27-10.14S41.67,21.23,41.67,28.7Zm-6.21,8.7c1.83,0,3.54-1.77,3.54-8.7s-1.71-8.79-3.54-8.79-3.6,1.74-3.6,8.79S33.57,37.4,35.46,37.4Z"/><use width="21.79" height="23.33" transform="translate(12.12 44.51)" xlink:href="#Diamond_Inverted"/><path class="cls-4" d="M116.52,162.69v-1.05h11.07v1.05l-4.32.72h-2.4Zm4.65,18.6-.42-.3.12-4.29V168c0-2.1,0-4.23-.09-6.33h2.58c-.06,2.1-.09,4.23-.09,6.33v10.86l4-.33v1.2Z"/><path class="cls-4" d="M101.19,171.3c0-7.44,3.09-10.05,6.21-10.05s6.27,2.61,6.27,10.05-3.09,10.14-6.27,10.14S101.19,178.77,101.19,171.3Zm6.21-8.7c-1.83,0-3.54,1.77-3.54,8.7s1.71,8.79,3.54,8.79,3.6-1.74,3.6-8.79S109.29,162.6,107.4,162.6Z"/><use width="26.14" height="28.02" transform="translate(84.5 185.71) rotate(180)" xlink:href="#Diamond"/><use width="26.14" height="28.02" transform="translate(84.5 150.71) rotate(180)" xlink:href="#Diamond"/><use width="26.14" height="28.02" transform="translate(36.09 150.71) rotate(180)" xlink:href="#Diamond"/><use width="26.14" height="28.02" transform="translate(59.54 116.1) rotate(180)" xlink:href="#Diamond"/><use width="26.14" height="28.02" transform="translate(36.09 185.71) rotate(180)" xlink:href="#Diamond"/><use width="21.79" height="23.33" transform="translate(130.74 155.49) rotate(180)" xlink:href="#Diamond_Inverted"/><use width="26.14" height="28.02" transform="translate(106.77 14.29)" xlink:href="#Diamond"/></svg>