<svg id="Colors" xmlns="http://www.w3.org/2000/svg" xmlns:xlink="http://www.w3.org/1999/xlink" viewBox="0 0 142.86 200"><defs><style>.cls-1{fill:#0d3b69;stroke:#e0e1da;}.cls-1,.cls-2{stroke-miterlimit:10;stroke-width:2px;}.cls-2{fill:#e0e1da;stroke:#0d3b69;}.cls-3{fill:#f3f3f0;}.cls-4{fill:#264066;}</style><symbol id="Heart" data-name="Heart" viewBox="0 0 31.93 27.41"><path class="cls-1" d="M1,8.42a7.32,7.32,0,0,1,3.23-6.1,7.51,7.51,0,0,1,9.43.76c.64.6,1.28,1.21,1.86,1.86.35.39.55.31.87,0,.57-.62,1.19-1.21,1.8-1.8a7.55,7.55,0,0,1,10.5.05,7.47,7.47,0,0,1,.14,10.54c-2.83,2.91-5.73,5.76-8.6,8.63-1.25,1.25-2.52,2.49-3.76,3.77-.37.38-.59.44-1,0C12.66,23.27,9.83,20.46,7,17.63c-1.3-1.3-2.61-2.6-3.9-3.91A7.33,7.33,0,0,1,1,8.42Z"/></symbol><symbol id="Heart_Inverted" data-name="Heart Inverted" viewBox="0 0 27.3 23.47"><path class="cls-2" d="M1,7.27A6.19,6.19,0,0,1,3.73,2.11a6.35,6.35,0,0,1,8,.65c.54.51,1.08,1,1.57,1.57.3.33.47.26.73,0,.49-.52,1-1,1.53-1.52a6.38,6.38,0,0,1,8.87.05,6.31,6.31,0,0,1,.12,8.9c-2.39,2.46-4.84,4.87-7.27,7.29-1.06,1.06-2.13,2.11-3.17,3.19-.32.32-.5.37-.85,0-2.37-2.41-4.77-4.79-7.16-7.18C5,14,3.86,12.86,2.77,11.75A6.26,6.26,0,0,1,1,7.27Z"/></symbol></defs><rect class="cls-3" width="142.86" height="200" rx="20.1"/><use width="31.93" height="27.41" transform="translate(55.46 14.59)" xlink:href="#Heart"/><use width="31.93" height="27.41" transform="translate(55.46 49.6)" xlink:href="#Heart"/><use width="31.93" height="27.41" transform="translate(103.87 49.6)" xlink:href="#Heart"/><use width="31.93" height="27.41" transform="translate(80.32 84.2)" xlink:href="#Heart"/><path class="cls-4" d="M26.34,37.31v1H15.27v-1l4.32-.72H22Zm-4.65-18.6.42.3L22,23.3V32c0,2.1,0,4.23.09,6.33H19.5c.06-2.1.09-4.23.09-6.33V21.17l-4,.33V20.3Z"/><path class="cls-4" d="M41.67,28.7c0,7.44-3.09,10.05-6.21,10.05s-6.27-2.61-6.27-10,3.09-10.14,6.27-10.14S41.67,21.23,41.67,28.7Zm-6.21,8.7c1.83,0,3.54-1.77,3.54-8.7s-1.71-8.79-3.54-8.79-3.6,1.74-3.6,8.79S33.57,37.4,35.46,37.4Z"/><use width="27.3" height="23.47" transform="translate(9.37 44.44)" xlink:href="#Heart_Inverted"/><path class="cls-4" d="M116.52,162.69v-1.05h11.07v1.05l-4.32.72h-2.4Zm4.65,18.6-.42-.3.12-4.29V168c0-2.1,0-4.23-.09-6.33h2.58c-.06,2.1-.09,4.23-.09,6.33v10.86l4-.33v1.2Z"/><path class="cls-4" d="M101.19,171.3c0-7.44,3.09-10.05,6.21-10.05s6.27,2.61,6.27,10.05-3.09,10.14-6.27,10.14S101.19,178.77,101.19,171.3Zm6.21-8.7c-1.83,0-3.54,1.77-3.54,8.7s1.71,8.79,3.54,8.79,3.6-1.74,3.6-8.79S109.29,162.6,107.4,162.6Z"/><use width="31.93" height="27.41" transform="translate(87.4 185.41) rotate(180)" xlink:href="#Heart"/><use width="31.93" height="27.41" transform="translate(87.4 150.4) rotate(180)" xlink:href="#Heart"/><use width="31.93" height="27.41" transform="translate(38.99 150.4) rotate(180)" xlink:href="#Heart"/><use width="31.93" height="27.41" transform="translate(62.43 115.8) rotate(180)" xlink:href="#Heart"/><use width="31.93" height="27.41" transform="translate(38.99 185.41) rotate(180)" xlink:href="#Heart"/><use width="27.3" height="23.47" transform="translate(133.49 155.56) rotate(180)" xlink:href="#Heart_Inverted"/><use width="31.93" height="27.41" transform="translate(103.87 14.59)" xlink:href="#Heart"/></svg>