<svg id="Colors" xmlns="http://www.w3.org/2000/svg" xmlns:xlink="http://www.w3.org/1999/xlink" viewBox="0 0 142.86 200"><defs><style>.cls-1{fill:#0d3b69;stroke:#e0e1da;}.cls-1,.cls-2{stroke-miterlimit:10;stroke-width:2px;}.cls-2{fill:#e0e1da;stroke:#0d3b69;}.cls-3{fill:#f3f3f0;}.cls-4{fill:#264066;}</style><symbol id="Diamond_Inverted" data-name="Diamond Inverted" viewBox="0 0 21.79 23.33"><path class="cls-2" d="M20.66,11.25c-3.75-2.4-8.38-8.57-9.51-10.12a.32.32,0,0,0-.51,0C9.51,2.68,4.88,8.85,1.14,11.25a.29.29,0,0,0,0,.5C4.68,14,9.48,20.57,10.64,22.2a.32.32,0,0,0,.52,0c1.15-1.63,6-8.22,9.5-10.45A.3.3,0,0,0,20.66,11.25Z"/></symbol><symbol id="Diamond" data-name="Diamond" viewBox="0 0 26.14 28.02"><path class="cls-1" d="M25,13.5C20.41,10.57,14.76,3,13.38,1.16a.38.38,0,0,0-.62,0C11.38,3,5.74,10.57,1.17,13.5a.36.36,0,0,0,0,.61c4.32,2.72,10.18,10.76,11.59,12.75a.38.38,0,0,0,.63,0c1.41-2,7.27-10,11.59-12.75A.36.36,0,0,0,25,13.5Z"/></symbol></defs><rect class="cls-3" width="142.86" height="200" rx="20.1"/><path class="cls-4" d="M19.32,27.38c2.73,0,4.35-1.47,4.35-4,0-2.19-1.35-3.45-3.72-3.45a8.54,8.54,0,0,0-2.55.42l1.29-.84-.57,2.07c-.36,1.29-.69,1.92-1.74,1.92a1.44,1.44,0,0,1-1.5-1.11c.57-2.55,2.82-3.81,5.55-3.81,3.45,0,5.7,1.92,5.7,4.71,0,2.52-1.92,4.5-5.07,5.19V28c3.84.33,5.7,2.28,5.7,5,0,3.27-2.67,5.76-6.69,5.76-2.88,0-5.16-1.23-5.7-4.23a1.61,1.61,0,0,1,1.5-1c1,0,1.32.66,1.74,2.13L18.24,38,17,36.89a7.24,7.24,0,0,0,2.7.51c3,0,4.47-1.62,4.47-4.32s-1.53-4.2-4.62-4.2H18.12v-1.5Z"/><path class="cls-4" d="M123.54,172.62c-2.73,0-4.35,1.47-4.35,4,0,2.19,1.35,3.45,3.72,3.45a8.54,8.54,0,0,0,2.55-.42l-1.29.84.57-2.07c.36-1.29.69-1.92,1.74-1.92a1.44,1.44,0,0,1,1.5,1.11c-.57,2.55-2.82,3.81-5.55,3.81-3.45,0-5.7-1.92-5.7-4.71,0-2.52,1.92-4.5,5.07-5.19v.51c-3.84-.33-5.7-2.28-5.7-5,0-3.27,2.67-5.76,6.69-5.76,2.88,0,5.16,1.23,5.7,4.23a1.61,1.61,0,0,1-1.5,1c-1,0-1.32-.66-1.74-2.13l-.63-2.28,1.2,1.08a7.24,7.24,0,0,0-2.7-.51c-3,0-4.47,1.62-4.47,4.32s1.53,4.2,4.62,4.2h1.47v1.5Z"/><use width="21.79" height="23.33" transform="translate(12.12 44.51)" xlink:href="#Diamond_Inverted"/><use width="21.79" height="23.33" transform="translate(130.74 155.49) rotate(180)" xlink:href="#Diamond_Inverted"/><use width="26.14" height="28.02" transform="translate(58.36 14.14)" xlink:href="#Diamond"/><use width="26.14" height="28.02" transform="translate(58.36 83.9)" xlink:href="#Diamond"/><use width="26.14" height="28.02" transform="translate(84.5 185.86) rotate(180)" xlink:href="#Diamond"/></svg>