<svg id="Colors" xmlns="http://www.w3.org/2000/svg" xmlns:xlink="http://www.w3.org/1999/xlink" viewBox="0 0 142.86 200"><defs><style>.cls-1{fill:#0d3b69;stroke:#e0e1da;}.cls-1,.cls-2{stroke-miterlimit:10;stroke-width:2px;}.cls-2{fill:#e0e1da;stroke:#0d3b69;}.cls-3{fill:#f3f3f0;}.cls-4{fill:#264066;}</style><symbol id="Heart_Inverted" data-name="Heart Inverted" viewBox="0 0 27.3 23.47"><path class="cls-2" d="M1,7.27A6.19,6.19,0,0,1,3.73,2.11a6.35,6.35,0,0,1,8,.65c.54.51,1.08,1,1.57,1.57.3.33.47.26.73,0,.49-.52,1-1,1.53-1.52a6.38,6.38,0,0,1,8.87.05,6.31,6.31,0,0,1,.12,8.9c-2.39,2.46-4.84,4.87-7.27,7.29-1.06,1.06-2.13,2.11-3.17,3.19-.32.32-.5.37-.85,0-2.37-2.41-4.77-4.79-7.16-7.18C5,14,3.86,12.86,2.77,11.75A6.26,6.26,0,0,1,1,7.27Z"/></symbol><symbol id="Heart" data-name="Heart" viewBox="0 0 31.93 27.41"><path class="cls-1" d="M1,8.42a7.32,7.32,0,0,1,3.23-6.1,7.51,7.51,0,0,1,9.43.76c.64.6,1.28,1.21,1.86,1.86.35.39.55.31.87,0,.57-.62,1.19-1.21,1.8-1.8a7.55,7.55,0,0,1,10.5.05,7.47,7.47,0,0,1,.14,10.54c-2.83,2.91-5.73,5.76-8.6,8.63-1.25,1.25-2.52,2.49-3.76,3.77-.37.38-.59.44-1,0C12.66,23.27,9.83,20.46,7,17.63c-1.3-1.3-2.61-2.6-3.9-3.91A7.33,7.33,0,0,1,1,8.42Z"/></symbol></defs><rect class="cls-3" width="142.86" height="200" rx="20.1"/><path class="cls-4" d="M19.32,27.38c2.73,0,4.35-1.47,4.35-4,0-2.19-1.35-3.45-3.72-3.45a8.54,8.54,0,0,0-2.55.42l1.29-.84-.57,2.07c-.36,1.29-.69,1.92-1.74,1.92a1.44,1.44,0,0,1-1.5-1.11c.57-2.55,2.82-3.81,5.55-3.81,3.45,0,5.7,1.92,5.7,4.71,0,2.52-1.92,4.5-5.07,5.19V28c3.84.33,5.7,2.28,5.7,5,0,3.27-2.67,5.76-6.69,5.76-2.88,0-5.16-1.23-5.7-4.23a1.61,1.61,0,0,1,1.5-1c1,0,1.32.66,1.74,2.13L18.24,38,17,36.89a7.24,7.24,0,0,0,2.7.51c3,0,4.47-1.62,4.47-4.32s-1.53-4.2-4.62-4.2H18.12v-1.5Z"/><path class="cls-4" d="M123.54,172.62c-2.73,0-4.35,1.47-4.35,4,0,2.19,1.35,3.45,3.72,3.45a8.54,8.54,0,0,0,2.55-.42l-1.29.84.57-2.07c.36-1.29.69-1.92,1.74-1.92a1.44,1.44,0,0,1,1.5,1.11c-.57,2.55-2.82,3.81-5.55,3.81-3.45,0-5.7-1.92-5.7-4.71,0-2.52,1.92-4.5,5.07-5.19v.51c-3.84-.33-5.7-2.28-5.7-5,0-3.27,2.67-5.76,6.69-5.76,2.88,0,5.16,1.23,5.7,4.23a1.61,1.61,0,0,1-1.5,1c-1,0-1.32-.66-1.74-2.13l-.63-2.28,1.2,1.08a7.24,7.24,0,0,0-2.7-.51c-3,0-4.47,1.62-4.47,4.32s1.53,4.2,4.62,4.2h1.47v1.5Z"/><use width="27.3" height="23.47" transform="translate(9.37 44.44)" xlink:href="#Heart_Inverted"/><use width="27.3" height="23.47" transform="translate(133.49 155.56) rotate(180)" xlink:href="#Heart_Inverted"/><use width="31.93" height="27.41" transform="translate(55.46 14.44)" xlink:href="#Heart"/><use width="31.93" height="27.41" transform="translate(55.46 84.2)" xlink:href="#Heart"/><use width="31.93" height="27.41" transform="translate(87.4 185.56) rotate(180)" xlink:href="#Heart"/></svg>