<svg id="Colors" xmlns="http://www.w3.org/2000/svg" xmlns:xlink="http://www.w3.org/1999/xlink" viewBox="0 0 142.86 200"><defs><style>.cls-1,.cls-4{fill:#4f544b;}.cls-1{stroke:#e0e1da;}.cls-1,.cls-2{stroke-miterlimit:10;stroke-width:2px;}.cls-2{fill:#e0e1da;stroke:#4f544b;}.cls-3{fill:#f3f3f0;}</style><symbol id="Spade_Inverted" data-name="Spade Inverted" viewBox="0 0 23.57 28.16"><path class="cls-2" d="M21.39,14.42a13.19,13.19,0,0,0-2.19-2.74c-.54-.54-1.09-1.07-1.62-1.63A38.16,38.16,0,0,1,14,5.63c-.39-.56-1.86-3.26-2.24-3.83-.38.57-1.76,3.27-2.15,3.83A38.16,38.16,0,0,1,6,10.05c-.53.56-1.08,1.09-1.62,1.63a13.57,13.57,0,0,0-2.2,2.74A6.82,6.82,0,0,0,1,18.77a4.07,4.07,0,0,0,1.4,2.76,5.87,5.87,0,0,0,5.18,1.21,7.63,7.63,0,0,0,2.46-.93L9.73,23a11.55,11.55,0,0,1-1.88,3.86c-.07.08-.19.17-.12.28s.18,0,.28,0h7.55c.1,0,.23,0,.28,0s-.05-.2-.12-.28A11.55,11.55,0,0,1,13.84,23l-.35-1.15a7.67,7.67,0,0,0,2.45.93,5.89,5.89,0,0,0,5.19-1.21,4.12,4.12,0,0,0,1.4-2.76A6.76,6.76,0,0,0,21.39,14.42Z"/></symbol><symbol id="Spade" data-name="Spade" viewBox="0 0 27.82 33.15"><path class="cls-1" d="M25.41,16.91a16.34,16.34,0,0,0-2.62-3.29c-.65-.64-1.31-1.27-1.94-1.94a45.55,45.55,0,0,1-4.31-5.3c-.47-.67-2.23-3.9-2.69-4.58-.45.68-2.11,3.91-2.57,4.58A45.55,45.55,0,0,1,7,11.68C6.34,12.35,5.68,13,5,13.62A16.75,16.75,0,0,0,2.4,16.91,8.17,8.17,0,0,0,1,22.11a5,5,0,0,0,1.68,3.31,7.07,7.07,0,0,0,6.21,1.45,9.23,9.23,0,0,0,2.94-1.12l-.42,1.38a14,14,0,0,1-2.26,4.62c-.07.1-.22.2-.14.34s.22,0,.34,0h9c.12,0,.27,0,.34,0s-.07-.24-.15-.34a14,14,0,0,1-2.25-4.62c-.13-.43-.27-.86-.42-1.38a9.23,9.23,0,0,0,2.94,1.12,7,7,0,0,0,6.2-1.45,4.89,4.89,0,0,0,1.68-3.31A8.11,8.11,0,0,0,25.41,16.91Z"/></symbol></defs><rect class="cls-3" width="142.86" height="200" rx="20.1"/><path class="cls-4" d="M19.32,27.38c2.73,0,4.35-1.47,4.35-4,0-2.19-1.35-3.45-3.72-3.45a8.54,8.54,0,0,0-2.55.42l1.29-.84-.57,2.07c-.36,1.29-.69,1.92-1.74,1.92a1.44,1.44,0,0,1-1.5-1.11c.57-2.55,2.82-3.81,5.55-3.81,3.45,0,5.7,1.92,5.7,4.71,0,2.52-1.92,4.5-5.07,5.19V28c3.84.33,5.7,2.28,5.7,5,0,3.27-2.67,5.76-6.69,5.76-2.88,0-5.16-1.23-5.7-4.23a1.61,1.61,0,0,1,1.5-1c1,0,1.32.66,1.74,2.13L18.24,38,17,36.89a7.24,7.24,0,0,0,2.7.51c3,0,4.47-1.62,4.47-4.32s-1.53-4.2-4.62-4.2H18.12v-1.5Z"/><path class="cls-4" d="M123.54,172.62c-2.73,0-4.35,1.47-4.35,4,0,2.19,1.35,3.45,3.72,3.45a8.54,8.54,0,0,0,2.55-.42l-1.29.84.57-2.07c.36-1.29.69-1.92,1.74-1.92a1.44,1.44,0,0,1,1.5,1.11c-.57,2.55-2.82,3.81-5.55,3.81-3.45,0-5.7-1.92-5.7-4.71,0-2.52,1.92-4.5,5.07-5.19v.51c-3.84-.33-5.7-2.28-5.7-5,0-3.27,2.67-5.76,6.69-5.76,2.88,0,5.16,1.23,5.7,4.23a1.61,1.61,0,0,1-1.5,1c-1,0-1.32-.66-1.74-2.13l-.63-2.28,1.2,1.08a7.24,7.24,0,0,0-2.7-.51c-3,0-4.47,1.62-4.47,4.32s1.53,4.2,4.62,4.2h1.47v1.5Z"/><use width="23.57" height="28.16" transform="translate(11.23 42.1)" xlink:href="#Spade_Inverted"/><use width="23.57" height="28.16" transform="translate(131.62 157.9) rotate(180)" xlink:href="#Spade_Inverted"/><use width="27.82" height="33.15" transform="translate(57.52 11.57)" xlink:href="#Spade"/><use width="27.82" height="33.15" transform="translate(57.52 81.33)" xlink:href="#Spade"/><use width="27.82" height="33.15" transform="translate(85.34 188.43) rotate(180)" xlink:href="#Spade"/></svg>