<svg id="Colors" xmlns="http://www.w3.org/2000/svg" xmlns:xlink="http://www.w3.org/1999/xlink" viewBox="0 0 142.86 200"><defs><style>.cls-1{fill:#0d3b69;stroke:#e0e1da;}.cls-1,.cls-2{stroke-miterlimit:10;stroke-width:2px;}.cls-2{fill:#e0e1da;stroke:#0d3b69;}.cls-3{fill:#f3f3f0;}.cls-4{fill:#264066;}</style><symbol id="Diamond_Inverted" data-name="Diamond Inverted" viewBox="0 0 21.79 23.33"><path class="cls-2" d="M20.66,11.25c-3.75-2.4-8.38-8.57-9.51-10.12a.32.32,0,0,0-.51,0C9.51,2.68,4.88,8.85,1.14,11.25a.29.29,0,0,0,0,.5C4.68,14,9.48,20.57,10.64,22.2a.32.32,0,0,0,.52,0c1.15-1.63,6-8.22,9.5-10.45A.3.3,0,0,0,20.66,11.25Z"/></symbol><symbol id="Diamond" data-name="Diamond" viewBox="0 0 26.14 28.02"><path class="cls-1" d="M25,13.5C20.41,10.57,14.76,3,13.38,1.16a.38.38,0,0,0-.62,0C11.38,3,5.74,10.57,1.17,13.5a.36.36,0,0,0,0,.61c4.32,2.72,10.18,10.76,11.59,12.75a.38.38,0,0,0,.63,0c1.41-2,7.27-10,11.59-12.75A.36.36,0,0,0,25,13.5Z"/></symbol></defs><rect class="cls-3" width="142.86" height="200" rx="20.1"/><path class="cls-4" d="M16,27a11.06,11.06,0,0,1,4.14-.81c3.87,0,6.54,2.16,6.54,6.15s-2.76,6.45-6.93,6.45c-3,0-4.92-1.38-5.58-4.2a1.52,1.52,0,0,1,1.5-1c.9,0,1.29.45,1.71,2l.6,2.16-1.2-.93a6.89,6.89,0,0,0,2.79.6c3,0,4.56-1.89,4.56-4.8S22.32,28,19.38,28a13,13,0,0,0-2.76.33l-.84-.21L16.41,19h9.75v2.4H17L17.82,20l-.51,7.41H16Z"/><path class="cls-4" d="M126.84,173a11.06,11.06,0,0,1-4.14.81c-3.87,0-6.54-2.16-6.54-6.15,0-3.84,2.76-6.45,6.93-6.45,3,0,4.92,1.38,5.58,4.2a1.52,1.52,0,0,1-1.5,1c-.9,0-1.29-.45-1.71-2l-.6-2.16,1.2.93a6.89,6.89,0,0,0-2.79-.6c-3,0-4.56,1.89-4.56,4.8s1.83,4.65,4.77,4.65a13,13,0,0,0,2.76-.33l.84.21-.63,9.12H116.7v-2.4h9.15L125,180l.51-7.41h1.29Z"/><use width="21.79" height="23.33" transform="translate(10 44.51)" xlink:href="#Diamond_Inverted"/><use width="21.79" height="23.33" transform="translate(128.61 155.49) rotate(180)" xlink:href="#Diamond_Inverted"/><use width="26.14" height="28.02" transform="translate(104.62 49.8)" xlink:href="#Diamond"/><use width="26.14" height="28.02" transform="translate(38.24 150.2) rotate(180)" xlink:href="#Diamond"/><use width="26.14" height="28.02" transform="translate(58.33 14.14)" xlink:href="#Diamond"/><use width="26.14" height="28.02" transform="translate(58.33 83.9)" xlink:href="#Diamond"/><use width="26.14" height="28.02" transform="translate(84.53 185.86) rotate(180)" xlink:href="#Diamond"/></svg>