<svg id="Colors" xmlns="http://www.w3.org/2000/svg" xmlns:xlink="http://www.w3.org/1999/xlink" viewBox="0 0 142.86 200"><defs><style>.cls-1{fill:#0d3b69;stroke:#e0e1da;}.cls-1,.cls-2{stroke-miterlimit:10;stroke-width:2px;}.cls-2{fill:#e0e1da;stroke:#0d3b69;}.cls-3{fill:#f3f3f0;}.cls-4{fill:#264066;}</style><symbol id="Heart_Inverted" data-name="Heart Inverted" viewBox="0 0 27.3 23.47"><path class="cls-2" d="M1,7.27A6.19,6.19,0,0,1,3.73,2.11a6.35,6.35,0,0,1,8,.65c.54.51,1.08,1,1.57,1.57.3.33.47.26.73,0,.49-.52,1-1,1.53-1.52a6.38,6.38,0,0,1,8.87.05,6.31,6.31,0,0,1,.12,8.9c-2.39,2.46-4.84,4.87-7.27,7.29-1.06,1.06-2.13,2.11-3.17,3.19-.32.32-.5.37-.85,0-2.37-2.41-4.77-4.79-7.16-7.18C5,14,3.86,12.86,2.77,11.75A6.26,6.26,0,0,1,1,7.27Z"/></symbol><symbol id="Heart" data-name="Heart" viewBox="0 0 31.93 27.41"><path class="cls-1" d="M1,8.42a7.32,7.32,0,0,1,3.23-6.1,7.51,7.51,0,0,1,9.43.76c.64.6,1.28,1.21,1.86,1.86.35.39.55.31.87,0,.57-.62,1.19-1.21,1.8-1.8a7.55,7.55,0,0,1,10.5.05,7.47,7.47,0,0,1,.14,10.54c-2.83,2.91-5.73,5.76-8.6,8.63-1.25,1.25-2.52,2.49-3.76,3.77-.37.38-.59.44-1,0C12.66,23.27,9.83,20.46,7,17.63c-1.3-1.3-2.61-2.6-3.9-3.91A7.33,7.33,0,0,1,1,8.42Z"/></symbol></defs><rect class="cls-3" width="142.86" height="200" rx="20.1"/><path class="cls-4" d="M16,27a11.06,11.06,0,0,1,4.14-.81c3.87,0,6.54,2.16,6.54,6.15s-2.76,6.45-6.93,6.45c-3,0-4.92-1.38-5.58-4.2a1.52,1.52,0,0,1,1.5-1c.9,0,1.29.45,1.71,2l.6,2.16-1.2-.93a6.89,6.89,0,0,0,2.79.6c3,0,4.56-1.89,4.56-4.8S22.32,28,19.38,28a13,13,0,0,0-2.76.33l-.84-.21L16.41,19h9.75v2.4H17L17.82,20l-.51,7.41H16Z"/><path class="cls-4" d="M126.84,173a11.06,11.06,0,0,1-4.14.81c-3.87,0-6.54-2.16-6.54-6.15,0-3.84,2.76-6.45,6.93-6.45,3,0,4.92,1.38,5.58,4.2a1.52,1.52,0,0,1-1.5,1c-.9,0-1.29-.45-1.71-2l-.6-2.16,1.2.93a6.89,6.89,0,0,0-2.79-.6c-3,0-4.56,1.89-4.56,4.8s1.83,4.65,4.77,4.65a13,13,0,0,0,2.76-.33l.84.21-.63,9.12H116.7v-2.4h9.15L125,180l.51-7.41h1.29Z"/><use width="27.3" height="23.47" transform="translate(7.24 44.44)" xlink:href="#Heart_Inverted"/><use width="27.3" height="23.47" transform="translate(131.36 155.56) rotate(180)" xlink:href="#Heart_Inverted"/><use width="31.93" height="27.41" transform="translate(101.72 50.1)" xlink:href="#Heart"/><use width="31.93" height="27.41" transform="translate(41.14 149.9) rotate(180)" xlink:href="#Heart"/><use width="31.93" height="27.41" transform="translate(55.44 14.44)" xlink:href="#Heart"/><use width="31.93" height="27.41" transform="translate(55.44 84.2)" xlink:href="#Heart"/><use width="31.93" height="27.41" transform="translate(87.42 185.56) rotate(180)" xlink:href="#Heart"/></svg>