<svg id="Colors" xmlns="http://www.w3.org/2000/svg" xmlns:xlink="http://www.w3.org/1999/xlink" viewBox="0 0 142.86 200"><defs><style>.cls-1,.cls-4{fill:#4f544b;}.cls-1{stroke:#e0e1da;}.cls-1,.cls-2{stroke-miterlimit:10;stroke-width:2px;}.cls-2{fill:#e0e1da;stroke:#4f544b;}.cls-3{fill:#f3f3f0;}</style><symbol id="Spade_Inverted" data-name="Spade Inverted" viewBox="0 0 23.57 28.16"><path class="cls-2" d="M21.39,14.42a13.19,13.19,0,0,0-2.19-2.74c-.54-.54-1.09-1.07-1.62-1.63A38.16,38.16,0,0,1,14,5.63c-.39-.56-1.86-3.26-2.24-3.83-.38.57-1.76,3.27-2.15,3.83A38.16,38.16,0,0,1,6,10.05c-.53.56-1.08,1.09-1.62,1.63a13.57,13.57,0,0,0-2.2,2.74A6.82,6.82,0,0,0,1,18.77a4.07,4.07,0,0,0,1.4,2.76,5.87,5.87,0,0,0,5.18,1.21,7.63,7.63,0,0,0,2.46-.93L9.73,23a11.55,11.55,0,0,1-1.88,3.86c-.07.08-.19.17-.12.28s.18,0,.28,0h7.55c.1,0,.23,0,.28,0s-.05-.2-.12-.28A11.55,11.55,0,0,1,13.84,23l-.35-1.15a7.67,7.67,0,0,0,2.45.93,5.89,5.89,0,0,0,5.19-1.21,4.12,4.12,0,0,0,1.4-2.76A6.76,6.76,0,0,0,21.39,14.42Z"/></symbol><symbol id="Spade" data-name="Spade" viewBox="0 0 27.82 33.15"><path class="cls-1" d="M25.41,16.91a16.34,16.34,0,0,0-2.62-3.29c-.65-.64-1.31-1.27-1.94-1.94a45.55,45.55,0,0,1-4.31-5.3c-.47-.67-2.23-3.9-2.69-4.58-.45.68-2.11,3.91-2.57,4.58A45.55,45.55,0,0,1,7,11.68C6.34,12.35,5.68,13,5,13.62A16.75,16.75,0,0,0,2.4,16.91,8.17,8.17,0,0,0,1,22.11a5,5,0,0,0,1.68,3.31,7.07,7.07,0,0,0,6.21,1.45,9.23,9.23,0,0,0,2.94-1.12l-.42,1.38a14,14,0,0,1-2.26,4.62c-.07.1-.22.2-.14.34s.22,0,.34,0h9c.12,0,.27,0,.34,0s-.07-.24-.15-.34a14,14,0,0,1-2.25-4.62c-.13-.43-.27-.86-.42-1.38a9.23,9.23,0,0,0,2.94,1.12,7,7,0,0,0,6.2-1.45,4.89,4.89,0,0,0,1.68-3.31A8.11,8.11,0,0,0,25.41,16.91Z"/></symbol></defs><rect class="cls-3" width="142.86" height="200" rx="20.1"/><path class="cls-4" d="M16,27a11.06,11.06,0,0,1,4.14-.81c3.87,0,6.54,2.16,6.54,6.15s-2.76,6.45-6.93,6.45c-3,0-4.92-1.38-5.58-4.2a1.52,1.52,0,0,1,1.5-1c.9,0,1.29.45,1.71,2l.6,2.16-1.2-.93a6.89,6.89,0,0,0,2.79.6c3,0,4.56-1.89,4.56-4.8S22.32,28,19.38,28a13,13,0,0,0-2.76.33l-.84-.21L16.41,19h9.75v2.4H17L17.82,20l-.51,7.41H16Z"/><path class="cls-4" d="M126.84,173a11.06,11.06,0,0,1-4.14.81c-3.87,0-6.54-2.16-6.54-6.15,0-3.84,2.76-6.45,6.93-6.45,3,0,4.92,1.38,5.58,4.2a1.52,1.52,0,0,1-1.5,1c-.9,0-1.29-.45-1.71-2l-.6-2.16,1.2.93a6.89,6.89,0,0,0-2.79-.6c-3,0-4.56,1.89-4.56,4.8s1.83,4.65,4.77,4.65a13,13,0,0,0,2.76-.33l.84.21-.63,9.12H116.7v-2.4h9.15L125,180l.51-7.41h1.29Z"/><use width="23.57" height="28.16" transform="translate(9.11 42.1)" xlink:href="#Spade_Inverted"/><use width="23.57" height="28.16" transform="translate(129.5 157.9) rotate(180)" xlink:href="#Spade_Inverted"/><use width="27.82" height="33.15" transform="translate(103.78 47.23)" xlink:href="#Spade"/><use width="27.82" height="33.15" transform="translate(39.08 152.77) rotate(180)" xlink:href="#Spade"/><use width="27.82" height="33.15" transform="translate(57.49 11.57)" xlink:href="#Spade"/><use width="27.82" height="33.15" transform="translate(57.49 81.33)" xlink:href="#Spade"/><use width="27.82" height="33.15" transform="translate(85.36 188.43) rotate(180)" xlink:href="#Spade"/></svg>