<svg id="Colors" xmlns="http://www.w3.org/2000/svg" xmlns:xlink="http://www.w3.org/1999/xlink" viewBox="0 0 142.86 200"><defs><style>.cls-1,.cls-4{fill:#4f544b;}.cls-1{stroke:#e0e1da;}.cls-1,.cls-2{stroke-miterlimit:10;stroke-width:2px;}.cls-2{fill:#e0e1da;stroke:#4f544b;}.cls-3{fill:#f3f3f0;}</style><symbol id="Club_Inverted" data-name="Club Inverted" viewBox="0 0 25.42 24.89"><path class="cls-2" d="M24.2,12.88c-.82-2.36-3.91-3.94-7.29-3.13a5.21,5.21,0,0,0,1.22-5.51A5.54,5.54,0,0,0,12.71,1c-2.42,0-4.6,1.11-5.42,3.24A5.19,5.19,0,0,0,8.51,9.75c-3.38-.81-6.47.77-7.29,3.13s1,4.72,1.11,4.84a6.38,6.38,0,0,0,5.6,2,7.18,7.18,0,0,0,2.33-.89c-.13.41-.23.76-.34,1.1a10.88,10.88,0,0,1-1.78,3.65c-.06.08-.18.16-.11.27s.17,0,.26,0h8.83c.09,0,.22,0,.27,0s-.05-.19-.11-.27a10.9,10.9,0,0,1-1.79-3.65c-.1-.34-.21-.69-.33-1.1a7.18,7.18,0,0,0,2.33.89,6.38,6.38,0,0,0,5.6-2C23.19,17.6,25,15.29,24.2,12.88Z"/></symbol><symbol id="Club" data-name="Club" viewBox="0 0 31.35 30.69"><path class="cls-1" d="M30.08,15.89c-1-3-4.91-4.93-9.14-3.92a6.54,6.54,0,0,0,1.53-6.91C21.44,2.4,18.68,1,15.67,1S9.91,2.4,8.88,5.06A6.54,6.54,0,0,0,10.41,12c-4.23-1-8.11,1-9.14,3.92S2.54,21.81,2.67,22c2.6,3.16,6.82,2.52,7,2.49a9,9,0,0,0,2.91-1.11l-.41,1.37A14,14,0,0,1,10,29.29c-.08.09-.22.2-.14.33s.22.05.33.05H21.21c.11,0,.27.06.33-.05s-.06-.24-.14-.33a13.76,13.76,0,0,1-2.24-4.58c-.13-.43-.26-.86-.42-1.37a9.19,9.19,0,0,0,2.92,1.11c.2,0,4.42.67,7-2.49C28.81,21.81,31.13,18.91,30.08,15.89Z"/></symbol></defs><rect class="cls-3" width="142.86" height="200" rx="20.1"/><path class="cls-4" d="M24.24,32.75c0-3.18-1.44-4.5-3.54-4.5A5.63,5.63,0,0,0,16.47,30L16,29.6a6.5,6.5,0,0,1,5.34-3.15c3.24,0,5.49,2.25,5.49,5.85,0,4.29-2.61,6.45-6.09,6.45-4,0-6.45-3.12-6.45-8.55,0-5.85,4-10.77,11.4-11.64l.18.93c-6.39,1.56-9,4.8-9,10.32,0,5.16,1.5,7.59,3.93,7.59C22.89,37.4,24.24,35.87,24.24,32.75Z"/><path class="cls-4" d="M118.62,167.25c0,3.18,1.44,4.5,3.54,4.5a5.63,5.63,0,0,0,4.23-1.77l.51.42a6.5,6.5,0,0,1-5.34,3.15c-3.24,0-5.49-2.25-5.49-5.85,0-4.29,2.61-6.45,6.09-6.45,4,0,6.45,3.12,6.45,8.55,0,5.84-4,10.76-11.4,11.64l-.18-.93c6.39-1.56,9-4.8,9-10.32,0-5.16-1.5-7.59-3.93-7.59C120,162.6,118.62,164.13,118.62,167.25Z"/><use width="25.42" height="24.89" transform="translate(10.87 43.74)" xlink:href="#Club_Inverted"/><use width="25.42" height="24.89" transform="translate(133.11 156.26) rotate(180)" xlink:href="#Club_Inverted"/><use width="31.35" height="30.69" transform="translate(55.73 12.8)" xlink:href="#Club"/><use width="31.35" height="30.69" transform="translate(81.57 83.97)" xlink:href="#Club"/><use width="31.35" height="30.69" transform="translate(104.14 12.8)" xlink:href="#Club"/><use width="31.35" height="30.69" transform="translate(87.13 187.2) rotate(180)" xlink:href="#Club"/><use width="31.35" height="30.69" transform="translate(61.29 116.03) rotate(180)" xlink:href="#Club"/><use width="31.35" height="30.69" transform="translate(38.72 187.2) rotate(180)" xlink:href="#Club"/></svg>