<svg id="Colors" xmlns="http://www.w3.org/2000/svg" xmlns:xlink="http://www.w3.org/1999/xlink" viewBox="0 0 142.86 200"><defs><style>.cls-1{fill:#0d3b69;stroke:#e0e1da;}.cls-1,.cls-2{stroke-miterlimit:10;stroke-width:2px;}.cls-2{fill:#e0e1da;stroke:#0d3b69;}.cls-3{fill:#f3f3f0;}.cls-4{fill:#264066;}</style><symbol id="Diamond_Inverted" data-name="Diamond Inverted" viewBox="0 0 21.79 23.33"><path class="cls-2" d="M20.66,11.25c-3.75-2.4-8.38-8.57-9.51-10.12a.32.32,0,0,0-.51,0C9.51,2.68,4.88,8.85,1.14,11.25a.29.29,0,0,0,0,.5C4.68,14,9.48,20.57,10.64,22.2a.32.32,0,0,0,.52,0c1.15-1.63,6-8.22,9.5-10.45A.3.3,0,0,0,20.66,11.25Z"/></symbol><symbol id="Diamond" data-name="Diamond" viewBox="0 0 26.14 28.02"><path class="cls-1" d="M25,13.5C20.41,10.57,14.76,3,13.38,1.16a.38.38,0,0,0-.62,0C11.38,3,5.74,10.57,1.17,13.5a.36.36,0,0,0,0,.61c4.32,2.72,10.18,10.76,11.59,12.75a.38.38,0,0,0,.63,0c1.41-2,7.27-10,11.59-12.75A.36.36,0,0,0,25,13.5Z"/></symbol></defs><rect class="cls-3" width="142.86" height="200" rx="20.1"/><path class="cls-4" d="M24.24,32.75c0-3.18-1.44-4.5-3.54-4.5A5.63,5.63,0,0,0,16.47,30L16,29.6a6.5,6.5,0,0,1,5.34-3.15c3.24,0,5.49,2.25,5.49,5.85,0,4.29-2.61,6.45-6.09,6.45-4,0-6.45-3.12-6.45-8.55,0-5.85,4-10.77,11.4-11.64l.18.93c-6.39,1.56-9,4.8-9,10.32,0,5.16,1.5,7.59,3.93,7.59C22.89,37.4,24.24,35.87,24.24,32.75Z"/><path class="cls-4" d="M118.62,167.25c0,3.18,1.44,4.5,3.54,4.5a5.63,5.63,0,0,0,4.23-1.77l.51.42a6.5,6.5,0,0,1-5.34,3.15c-3.24,0-5.49-2.25-5.49-5.85,0-4.29,2.61-6.45,6.09-6.45,4,0,6.45,3.12,6.45,8.55,0,5.85-4,10.77-11.4,11.64l-.18-.93c6.39-1.56,9-4.8,9-10.32,0-5.16-1.5-7.59-3.93-7.59C120,162.6,118.62,164.13,118.62,167.25Z"/><use width="21.79" height="23.33" transform="translate(12.68 44.51)" xlink:href="#Diamond_Inverted"/><use width="21.79" height="23.33" transform="translate(131.3 155.49) rotate(180)" xlink:href="#Diamond_Inverted"/><use width="26.14" height="28.02" transform="translate(58.33 14.14)" xlink:href="#Diamond"/><use width="26.14" height="28.02" transform="translate(84.17 85.3)" xlink:href="#Diamond"/><use width="26.14" height="28.02" transform="translate(106.74 14.14)" xlink:href="#Diamond"/><use width="26.14" height="28.02" transform="translate(84.53 185.86) rotate(180)" xlink:href="#Diamond"/><use width="26.14" height="28.02" transform="translate(58.68 114.7) rotate(180)" xlink:href="#Diamond"/><use width="26.14" height="28.02" transform="translate(36.12 185.86) rotate(180)" xlink:href="#Diamond"/></svg>