<svg id="Colors" xmlns="http://www.w3.org/2000/svg" xmlns:xlink="http://www.w3.org/1999/xlink" viewBox="0 0 142.86 200"><defs><style>.cls-1{fill:#0d3b69;stroke:#e0e1da;}.cls-1,.cls-2{stroke-miterlimit:10;stroke-width:2px;}.cls-2{fill:#e0e1da;stroke:#0d3b69;}.cls-3{fill:#f3f3f0;}.cls-4{fill:#264066;}</style><symbol id="Heart_Inverted" data-name="Heart Inverted" viewBox="0 0 27.3 23.47"><path class="cls-2" d="M1,7.27A6.19,6.19,0,0,1,3.73,2.11a6.35,6.35,0,0,1,8,.65c.54.51,1.08,1,1.57,1.57.3.33.47.26.73,0,.49-.52,1-1,1.53-1.52a6.38,6.38,0,0,1,8.87.05,6.31,6.31,0,0,1,.12,8.9c-2.39,2.46-4.84,4.87-7.27,7.29-1.06,1.06-2.13,2.11-3.17,3.19-.32.32-.5.37-.85,0-2.37-2.41-4.77-4.79-7.16-7.18C5,14,3.86,12.86,2.77,11.75A6.26,6.26,0,0,1,1,7.27Z"/></symbol><symbol id="Heart" data-name="Heart" viewBox="0 0 31.93 27.41"><path class="cls-1" d="M1,8.42a7.32,7.32,0,0,1,3.23-6.1,7.51,7.51,0,0,1,9.43.76c.64.6,1.28,1.21,1.86,1.86.35.39.55.31.87,0,.57-.62,1.19-1.21,1.8-1.8a7.55,7.55,0,0,1,10.5.05,7.47,7.47,0,0,1,.14,10.54c-2.83,2.91-5.73,5.76-8.6,8.63-1.25,1.25-2.52,2.49-3.76,3.77-.37.38-.59.44-1,0C12.66,23.27,9.83,20.46,7,17.63c-1.3-1.3-2.61-2.6-3.9-3.91A7.33,7.33,0,0,1,1,8.42Z"/></symbol></defs><rect class="cls-3" width="142.86" height="200" rx="20.1"/><path class="cls-4" d="M24.24,32.75c0-3.18-1.44-4.5-3.54-4.5A5.63,5.63,0,0,0,16.47,30L16,29.6a6.5,6.5,0,0,1,5.34-3.15c3.24,0,5.49,2.25,5.49,5.85,0,4.29-2.61,6.45-6.09,6.45-4,0-6.45-3.12-6.45-8.55,0-5.85,4-10.77,11.4-11.64l.18.93c-6.39,1.56-9,4.8-9,10.32,0,5.16,1.5,7.59,3.93,7.59C22.89,37.4,24.24,35.87,24.24,32.75Z"/><path class="cls-4" d="M118.62,167.25c0,3.18,1.44,4.5,3.54,4.5a5.63,5.63,0,0,0,4.23-1.77l.51.42a6.5,6.5,0,0,1-5.34,3.15c-3.24,0-5.49-2.25-5.49-5.85,0-4.29,2.61-6.45,6.09-6.45,4,0,6.45,3.12,6.45,8.55,0,5.85-4,10.77-11.4,11.64l-.18-.93c6.39-1.56,9-4.8,9-10.32,0-5.16-1.5-7.59-3.93-7.59C120,162.6,118.62,164.13,118.62,167.25Z"/><use width="27.3" height="23.47" transform="translate(9.93 44.44)" xlink:href="#Heart_Inverted"/><use width="27.3" height="23.47" transform="translate(134.05 155.56) rotate(180)" xlink:href="#Heart_Inverted"/><use width="31.93" height="27.41" transform="translate(55.44 14.44)" xlink:href="#Heart"/><use width="31.93" height="27.41" transform="translate(81.28 85.61)" xlink:href="#Heart"/><use width="31.93" height="27.41" transform="translate(103.85 14.44)" xlink:href="#Heart"/><use width="31.93" height="27.41" transform="translate(87.42 185.56) rotate(180)" xlink:href="#Heart"/><use width="31.93" height="27.41" transform="translate(61.58 114.39) rotate(180)" xlink:href="#Heart"/><use width="31.93" height="27.41" transform="translate(39.01 185.56) rotate(180)" xlink:href="#Heart"/></svg>