<svg id="Colors" xmlns="http://www.w3.org/2000/svg" xmlns:xlink="http://www.w3.org/1999/xlink" viewBox="0 0 142.86 200"><defs><style>.cls-1{fill:#0d3b69;stroke:#e0e1da;}.cls-1,.cls-2{stroke-miterlimit:10;stroke-width:2px;}.cls-2{fill:#e0e1da;stroke:#0d3b69;}.cls-3{fill:#f3f3f0;}.cls-4{fill:#264066;}</style><symbol id="Diamond_Inverted" data-name="Diamond Inverted" viewBox="0 0 21.79 23.33"><path class="cls-2" d="M20.66,11.25c-3.75-2.4-8.38-8.57-9.51-10.12a.32.32,0,0,0-.51,0C9.51,2.68,4.88,8.85,1.14,11.25a.29.29,0,0,0,0,.5C4.68,14,9.48,20.57,10.64,22.2a.32.32,0,0,0,.52,0c1.15-1.63,6-8.22,9.5-10.45A.3.3,0,0,0,20.66,11.25Z"/></symbol><symbol id="Diamond" data-name="Diamond" viewBox="0 0 26.14 28.02"><path class="cls-1" d="M25,13.5C20.41,10.57,14.76,3,13.38,1.16a.38.38,0,0,0-.62,0C11.38,3,5.74,10.57,1.17,13.5a.36.36,0,0,0,0,.61c4.32,2.72,10.18,10.76,11.59,12.75a.38.38,0,0,0,.63,0c1.41-2,7.27-10,11.59-12.75A.36.36,0,0,0,25,13.5Z"/></symbol></defs><rect class="cls-3" width="142.86" height="200" rx="20.1"/><path class="cls-4" d="M19.11,28.55,20.4,29c-2.4,1.35-3.63,2.46-3.63,4.71a3.66,3.66,0,0,0,3.84,3.75,3.48,3.48,0,0,0,3.57-3.63c0-1.77-1.11-2.85-4.65-4.53-3.18-1.5-4.5-3.42-4.5-5.73,0-3.12,2.49-5,5.55-5s5.1,1.92,5.1,4.65c0,1.5-.93,3.48-4.29,5.22L20.25,28c2.46-1.65,3.27-2.85,3.27-4.74s-1.08-3.36-3-3.36a3,3,0,0,0-3.21,3c0,1.65.84,3.18,4.29,4.77s5,3.09,5,5.94-2.67,5.1-6.06,5.1c-3.57,0-6.18-1.65-6.18-4.89C14.37,31.55,16,30,19.11,28.55Z"/><path class="cls-4" d="M123.75,171.45l-1.29-.42c2.4-1.35,3.63-2.46,3.63-4.71a3.66,3.66,0,0,0-3.84-3.75,3.48,3.48,0,0,0-3.57,3.63c0,1.77,1.11,2.85,4.65,4.53,3.18,1.5,4.5,3.42,4.5,5.73,0,3.12-2.49,5-5.55,5s-5.1-1.92-5.1-4.65c0-1.5.93-3.48,4.29-5.22l1.14.42c-2.46,1.65-3.27,2.85-3.27,4.74s1.08,3.36,3,3.36a3,3,0,0,0,3.21-3c0-1.65-.84-3.18-4.29-4.77s-5-3.09-5-5.94c0-3,2.67-5.1,6.06-5.1,3.57,0,6.18,1.65,6.18,4.89C128.49,168.45,126.84,170,123.75,171.45Z"/><use width="21.79" height="23.33" transform="translate(12.12 44.51)" xlink:href="#Diamond_Inverted"/><use width="21.79" height="23.33" transform="translate(130.74 155.49) rotate(180)" xlink:href="#Diamond_Inverted"/><use width="26.14" height="28.02" transform="translate(58.61 14.14)" xlink:href="#Diamond"/><use width="26.14" height="28.02" transform="translate(58.61 63.31)" xlink:href="#Diamond"/><use width="26.14" height="28.02" transform="translate(107.02 63.31)" xlink:href="#Diamond"/><use width="26.14" height="28.02" transform="translate(107.02 14.14)" xlink:href="#Diamond"/><use width="26.14" height="28.02" transform="translate(84.24 185.86) rotate(180)" xlink:href="#Diamond"/><use width="26.14" height="28.02" transform="translate(84.24 136.69) rotate(180)" xlink:href="#Diamond"/><use width="26.14" height="28.02" transform="translate(35.83 136.69) rotate(180)" xlink:href="#Diamond"/><use width="26.14" height="28.02" transform="translate(35.83 185.86) rotate(180)" xlink:href="#Diamond"/></svg>