<svg id="Colors" xmlns="http://www.w3.org/2000/svg" xmlns:xlink="http://www.w3.org/1999/xlink" viewBox="0 0 142.86 200"><defs><style>.cls-1{fill:#0d3b69;stroke:#e0e1da;}.cls-1,.cls-2{stroke-miterlimit:10;stroke-width:2px;}.cls-2{fill:#e0e1da;stroke:#0d3b69;}.cls-3{fill:#f3f3f0;}.cls-4{fill:#264066;}</style><symbol id="Heart_Inverted" data-name="Heart Inverted" viewBox="0 0 27.3 23.47"><path class="cls-2" d="M1,7.27A6.19,6.19,0,0,1,3.73,2.11a6.35,6.35,0,0,1,8,.65c.54.51,1.08,1,1.57,1.57.3.33.47.26.73,0,.49-.52,1-1,1.53-1.52a6.38,6.38,0,0,1,8.87.05,6.31,6.31,0,0,1,.12,8.9c-2.39,2.46-4.84,4.87-7.27,7.29-1.06,1.06-2.13,2.11-3.17,3.19-.32.32-.5.37-.85,0-2.37-2.41-4.77-4.79-7.16-7.18C5,14,3.86,12.86,2.77,11.75A6.26,6.26,0,0,1,1,7.27Z"/></symbol><symbol id="Heart" data-name="Heart" viewBox="0 0 31.93 27.41"><path class="cls-1" d="M1,8.42a7.32,7.32,0,0,1,3.23-6.1,7.51,7.51,0,0,1,9.43.76c.64.6,1.28,1.21,1.86,1.86.35.39.55.31.87,0,.57-.62,1.19-1.21,1.8-1.8a7.55,7.55,0,0,1,10.5.05,7.47,7.47,0,0,1,.14,10.54c-2.83,2.91-5.73,5.76-8.6,8.63-1.25,1.25-2.52,2.49-3.76,3.77-.37.38-.59.44-1,0C12.66,23.27,9.83,20.46,7,17.63c-1.3-1.3-2.61-2.6-3.9-3.91A7.33,7.33,0,0,1,1,8.42Z"/></symbol></defs><rect class="cls-3" width="142.86" height="200" rx="20.1"/><path class="cls-4" d="M19.11,28.55,20.4,29c-2.4,1.35-3.63,2.46-3.63,4.71a3.66,3.66,0,0,0,3.84,3.75,3.48,3.48,0,0,0,3.57-3.63c0-1.77-1.11-2.85-4.65-4.53-3.18-1.5-4.5-3.42-4.5-5.73,0-3.12,2.49-5,5.55-5s5.1,1.92,5.1,4.65c0,1.5-.93,3.48-4.29,5.22L20.25,28c2.46-1.65,3.27-2.85,3.27-4.74s-1.08-3.36-3-3.36a3,3,0,0,0-3.21,3c0,1.65.84,3.18,4.29,4.77s5,3.09,5,5.94-2.67,5.1-6.06,5.1c-3.57,0-6.18-1.65-6.18-4.89C14.37,31.55,16,30,19.11,28.55Z"/><path class="cls-4" d="M123.75,171.45l-1.29-.42c2.4-1.35,3.63-2.46,3.63-4.71a3.66,3.66,0,0,0-3.84-3.75,3.48,3.48,0,0,0-3.57,3.63c0,1.77,1.11,2.85,4.65,4.53,3.18,1.5,4.5,3.42,4.5,5.73,0,3.12-2.49,5-5.55,5s-5.1-1.92-5.1-4.65c0-1.5.93-3.48,4.29-5.22l1.14.42c-2.46,1.65-3.27,2.85-3.27,4.74s1.08,3.36,3,3.36a3,3,0,0,0,3.21-3c0-1.65-.84-3.18-4.29-4.77s-5-3.09-5-5.94c0-3,2.67-5.1,6.06-5.1,3.57,0,6.18,1.65,6.18,4.89C128.49,168.45,126.84,170,123.75,171.45Z"/><use width="27.3" height="23.47" transform="translate(9.37 44.44)" xlink:href="#Heart_Inverted"/><use width="27.3" height="23.47" transform="translate(133.49 155.56) rotate(180)" xlink:href="#Heart_Inverted"/><use width="31.93" height="27.41" transform="translate(55.72 14.44)" xlink:href="#Heart"/><use width="31.93" height="27.41" transform="translate(55.72 63.62)" xlink:href="#Heart"/><use width="31.93" height="27.41" transform="translate(104.13 63.62)" xlink:href="#Heart"/><use width="31.93" height="27.41" transform="translate(104.13 14.44)" xlink:href="#Heart"/><use width="31.93" height="27.41" transform="translate(87.14 185.56) rotate(180)" xlink:href="#Heart"/><use width="31.93" height="27.41" transform="translate(87.14 136.38) rotate(180)" xlink:href="#Heart"/><use width="31.93" height="27.41" transform="translate(38.73 136.38) rotate(180)" xlink:href="#Heart"/><use width="31.93" height="27.41" transform="translate(38.73 185.56) rotate(180)" xlink:href="#Heart"/></svg>