<svg id="Colors" xmlns="http://www.w3.org/2000/svg" xmlns:xlink="http://www.w3.org/1999/xlink" viewBox="0 0 142.86 200"><defs><style>.cls-1{fill:#0d3b69;stroke:#e0e1da;}.cls-1,.cls-2{stroke-miterlimit:10;stroke-width:2px;}.cls-2{fill:#e0e1da;stroke:#0d3b69;}.cls-3{fill:#f3f3f0;}.cls-4{fill:#264066;}</style><symbol id="Heart" data-name="Heart" viewBox="0 0 31.93 27.41"><path class="cls-1" d="M1,8.42a7.32,7.32,0,0,1,3.23-6.1,7.51,7.51,0,0,1,9.43.76c.64.6,1.28,1.21,1.86,1.86.35.39.55.31.87,0,.57-.62,1.19-1.21,1.8-1.8a7.55,7.55,0,0,1,10.5.05,7.47,7.47,0,0,1,.14,10.54c-2.83,2.91-5.73,5.76-8.6,8.63-1.25,1.25-2.52,2.49-3.76,3.77-.37.38-.59.44-1,0C12.66,23.27,9.83,20.46,7,17.63c-1.3-1.3-2.61-2.6-3.9-3.91A7.33,7.33,0,0,1,1,8.42Z"/></symbol><symbol id="Heart_Inverted" data-name="Heart Inverted" viewBox="0 0 27.3 23.47"><path class="cls-2" d="M1,7.27A6.19,6.19,0,0,1,3.73,2.11a6.35,6.35,0,0,1,8,.65c.54.51,1.08,1,1.57,1.57.3.33.47.26.73,0,.49-.52,1-1,1.53-1.52a6.38,6.38,0,0,1,8.87.05,6.31,6.31,0,0,1,.12,8.9c-2.39,2.46-4.84,4.87-7.27,7.29-1.06,1.06-2.13,2.11-3.17,3.19-.32.32-.5.37-.85,0-2.37-2.41-4.77-4.79-7.16-7.18C5,14,3.86,12.86,2.77,11.75A6.26,6.26,0,0,1,1,7.27Z"/></symbol></defs><rect class="cls-3" width="142.86" height="200" rx="20.1"/><path class="cls-4" d="M20.49,28.85a5.06,5.06,0,0,0,4.23-2.13l.51.21a5.68,5.68,0,0,1-5.49,3.72,5.62,5.62,0,0,1-5.82-5.88c0-3.72,2.58-6.21,6.36-6.21s6.18,3,6.18,7.8c0,5.7-3,10.77-10.83,12.6l-.3-1.11c6.39-2.1,8.55-5.49,8.55-11,0-4.86-1.5-7-3.75-7-2,0-3.66,1.56-3.66,4.59S18.24,28.85,20.49,28.85Z"/><path class="cls-4" d="M122.37,171.15a5.06,5.06,0,0,0-4.23,2.13l-.51-.21a5.68,5.68,0,0,1,5.49-3.72,5.62,5.62,0,0,1,5.82,5.88c0,3.72-2.58,6.21-6.36,6.21s-6.18-3-6.18-7.8c0-5.7,3-10.77,10.83-12.6l.3,1.11c-6.39,2.1-8.55,5.49-8.55,10.95,0,4.86,1.5,7,3.75,7,2,0,3.66-1.56,3.66-4.59S124.62,171.15,122.37,171.15Z"/><use width="31.93" height="27.41" transform="translate(87.54 185.41) rotate(180)" xlink:href="#Heart"/><use width="31.93" height="27.41" transform="translate(39.13 185.41) rotate(180)" xlink:href="#Heart"/><use width="27.3" height="23.47" transform="translate(9.93 44.44)" xlink:href="#Heart_Inverted"/><use width="27.3" height="23.47" transform="translate(134.05 155.56) rotate(180)" xlink:href="#Heart_Inverted"/><use width="31.93" height="27.41" transform="translate(55.44 14.44)" xlink:href="#Heart"/><use width="31.93" height="27.41" transform="translate(55.44 84.2)" xlink:href="#Heart"/><use width="31.93" height="27.41" transform="translate(103.85 84.2)" xlink:href="#Heart"/><use width="31.93" height="27.41" transform="translate(81.28 49.6)" xlink:href="#Heart"/><use width="31.93" height="27.41" transform="translate(103.85 14.44)" xlink:href="#Heart"/><use width="31.93" height="27.41" transform="translate(87.42 185.56) rotate(180)" xlink:href="#Heart"/><use width="31.93" height="27.41" transform="translate(39.01 115.8) rotate(180)" xlink:href="#Heart"/><use width="31.93" height="27.41" transform="translate(61.58 150.4) rotate(180)" xlink:href="#Heart"/><use width="31.93" height="27.41" transform="translate(39.01 185.56) rotate(180)" xlink:href="#Heart"/></svg>