<svg id="Colors" xmlns="http://www.w3.org/2000/svg" xmlns:xlink="http://www.w3.org/1999/xlink" viewBox="0 0 142.86 200"><defs><style>.cls-1{fill:#0d3b69;stroke:#e0e1da;}.cls-1,.cls-2{stroke-miterlimit:10;stroke-width:2px;}.cls-2{fill:#e0e1da;stroke:#0d3b69;}.cls-3{fill:#f3f3f0;}.cls-4{fill:#264066;}</style><symbol id="Diamond_Inverted" data-name="Diamond Inverted" viewBox="0 0 21.79 23.33"><path class="cls-2" d="M20.66,11.25c-3.75-2.4-8.38-8.57-9.51-10.12a.32.32,0,0,0-.51,0C9.51,2.68,4.88,8.85,1.14,11.25a.29.29,0,0,0,0,.5C4.68,14,9.48,20.57,10.64,22.2a.32.32,0,0,0,.52,0c1.15-1.63,6-8.22,9.5-10.45A.3.3,0,0,0,20.66,11.25Z"/></symbol><symbol id="Diamond" data-name="Diamond" viewBox="0 0 26.14 28.02"><path class="cls-1" d="M25,13.5C20.41,10.57,14.76,3,13.38,1.16a.38.38,0,0,0-.62,0C11.38,3,5.74,10.57,1.17,13.5a.36.36,0,0,0,0,.61c4.32,2.72,10.18,10.76,11.59,12.75a.38.38,0,0,0,.63,0c1.41-2,7.27-10,11.59-12.75A.36.36,0,0,0,25,13.5Z"/></symbol></defs><rect class="cls-3" width="142.86" height="200" rx="20.1"/><path class="cls-4" d="M13.2,37.16l3-.45h.6l3.3.45v1.2H13.2Zm8.94-19h1.8l6.9,20.25H28.05l-6-18h.69l-6.12,18H15.18Zm-3.51,12.3h8.1l.48,1.38H18.15Zm5.91,6.75,3.78-.45h.6l3.72.45v1.2h-8.1Z"/><path class="cls-4" d="M118.32,162.84l-3.78.45h-.6l-3.72-.45v-1.2h8.1Zm2.4,19h-1.8L112,161.64h2.79l6,18h-.69l6.12-18h1.41Zm3.51-12.3h-8.1l-.48-1.38h9.06Zm5.43-6.75-3,.45h-.6l-3.3-.45v-1.2h6.9Z"/><use width="21.79" height="23.33" transform="translate(12.12 44.51)" xlink:href="#Diamond_Inverted"/><use width="21.79" height="23.33" transform="translate(130.74 155.49) rotate(180)" xlink:href="#Diamond_Inverted"/><use width="26.14" height="28.02" transform="translate(34.14 64.99) scale(2.85)" xlink:href="#Diamond"/></svg>