<svg id="Colors" xmlns="http://www.w3.org/2000/svg" xmlns:xlink="http://www.w3.org/1999/xlink" viewBox="0 0 142.86 200"><defs><style>.cls-1{fill:#e0e1da;stroke:#0d3b69;}.cls-1,.cls-4{stroke-miterlimit:10;stroke-width:2px;}.cls-2{fill:#f3f3f0;}.cls-3{fill:#264066;}.cls-4{fill:#0d3b69;stroke:#e0e1da;}</style><symbol id="Diamond_Inverted" data-name="Diamond Inverted" viewBox="0 0 21.79 23.33"><path class="cls-1" d="M20.66,11.25c-3.75-2.4-8.38-8.57-9.51-10.12a.32.32,0,0,0-.51,0C9.51,2.68,4.88,8.85,1.14,11.25a.29.29,0,0,0,0,.5C4.68,14,9.48,20.57,10.64,22.2a.32.32,0,0,0,.52,0c1.15-1.63,6-8.22,9.5-10.45A.3.3,0,0,0,20.66,11.25Z"/></symbol></defs><rect class="cls-2" width="142.86" height="200" rx="20.1"/><path class="cls-3" d="M20.43,18.26c-.09,3-.09,6.15-.09,9.3v4.77A32.84,32.84,0,0,1,20,38.75a5.47,5.47,0,0,1-5.58,4.47c-1.11,0-2.28-.3-2.55-1.44a1.6,1.6,0,0,1,1.8-1.44,3.49,3.49,0,0,1,2.22.87l1,.75-.24.33-.24,0-.06-.24c1.14-.87,1.53-2,1.53-3.87s-.15-4.92-.3-19.95Zm-5.94,0h8.7v1.2l-3.9.45h-.6l-4.2-.45Z"/><path class="cls-3" d="M128.37,181.74h-8.7v-1.2l3.9-.45h.6l4.2.45Zm-5.94,0c.09-3,.09-6.15.09-9.3v-4.77a32.84,32.84,0,0,1,.36-6.42,5.47,5.47,0,0,1,5.58-4.47c1.11,0,2.28.3,2.55,1.44a1.6,1.6,0,0,1-1.8,1.44,3.49,3.49,0,0,1-2.22-.87l-1-.75.24-.33.24,0,.06.24c-1.14.87-1.53,2-1.53,3.87s.15,4.92.3,20Z"/><polygon class="cls-4" points="50.82 36.45 64.6 29.73 86.38 29.73 99.71 36.45 96.6 45.3 87.27 45.3 64.82 45.3 55.94 45.3 50.82 36.45"/><path class="cls-1" d="M66.29,75.4l22.53,3.67,6-13.5a3.27,3.27,0,0,0,2.45-1.16c1.36-1.85-.61-5.11-.89-5.56-1.12-1.8-2-1.78-2.59-3.11-.47-1.11-.58-2.84,1-5.63l-20.3.18Z"/><rect class="cls-4" x="99.88" y="59.64" width="7.11" height="36.26" rx="1" transform="translate(38.22 -34.01) rotate(22.8)"/><circle class="cls-4" cx="115.19" cy="50.29" r="6.59"/><polygon class="cls-4" points="92.03 163.55 78.26 170.27 56.48 170.27 43.15 163.55 46.26 154.71 55.59 154.71 78.03 154.71 86.92 154.71 92.03 163.55"/><path class="cls-1" d="M76.57,124.6,54,120.93l-6,13.5a3.24,3.24,0,0,0-2.44,1.16c-1.36,1.85.61,5.11.89,5.56,1.12,1.8,2,1.78,2.59,3.11.47,1.11.57,2.84-1,5.63l20.29-.18Z"/><rect class="cls-4" x="35.9" y="103.95" width="7.11" height="36.42" rx="0.98" transform="translate(28.49 250.06) rotate(-157.2)"/><circle class="cls-4" cx="27.67" cy="149.71" r="6.59"/><polygon class="cls-4" points="99.71 116.31 105.82 102.11 83.19 96.25 88.01 84.66 65.27 80.85 59.05 80.85 68.98 50.29 54.82 50.29 45.49 77.3 43.15 83.39 37.16 97.59 59.66 103.45 54.85 115.03 77.59 118.84 83.81 119.15 73.87 149.71 88.03 149.71 97.37 122.7 99.71 116.31"/><use width="21.79" height="23.33" transform="translate(12.12 44.51)" xlink:href="#Diamond_Inverted"/><use width="21.79" height="23.33" transform="translate(130.74 155.49) rotate(180)" xlink:href="#Diamond_Inverted"/></svg>