<svg id="Colors" xmlns="http://www.w3.org/2000/svg" xmlns:xlink="http://www.w3.org/1999/xlink" viewBox="0 0 142.86 200"><defs><style>.cls-1,.cls-5{fill:#e0e1da;stroke:#4f544b;}.cls-1,.cls-4,.cls-5{stroke-miterlimit:10;}.cls-1{stroke-width:2px;}.cls-2{fill:#f3f3f0;}.cls-3,.cls-4{fill:#4f544b;}.cls-4{stroke:#e0e1da;}.cls-4,.cls-5{stroke-width:3px;}</style><symbol id="Spade_Inverted" data-name="Spade Inverted" viewBox="0 0 23.57 28.16"><path class="cls-1" d="M21.39,14.42a13.19,13.19,0,0,0-2.19-2.74c-.54-.54-1.09-1.07-1.62-1.63A38.16,38.16,0,0,1,14,5.63c-.39-.56-1.86-3.26-2.24-3.83-.38.57-1.76,3.27-2.15,3.83A38.16,38.16,0,0,1,6,10.05c-.53.56-1.08,1.09-1.62,1.63a13.57,13.57,0,0,0-2.2,2.74A6.82,6.82,0,0,0,1,18.77a4.07,4.07,0,0,0,1.4,2.76,5.87,5.87,0,0,0,5.18,1.21,7.63,7.63,0,0,0,2.46-.93L9.73,23a11.55,11.55,0,0,1-1.88,3.86c-.07.08-.19.17-.12.28s.18,0,.28,0h7.55c.1,0,.23,0,.28,0s-.05-.2-.12-.28A11.55,11.55,0,0,1,13.84,23l-.35-1.15a7.67,7.67,0,0,0,2.45.93,5.89,5.89,0,0,0,5.19-1.21,4.12,4.12,0,0,0,1.4-2.76A6.76,6.76,0,0,0,21.39,14.42Z"/></symbol></defs><rect class="cls-2" width="142.86" height="200" rx="20.1"/><path class="cls-3" d="M20.43,18.26c-.09,3-.09,6.15-.09,9.3v4.77A32.84,32.84,0,0,1,20,38.75a5.47,5.47,0,0,1-5.58,4.47c-1.11,0-2.28-.3-2.55-1.44a1.6,1.6,0,0,1,1.8-1.44,3.49,3.49,0,0,1,2.22.87l1,.75-.24.33-.24,0-.06-.24c1.14-.87,1.53-2,1.53-3.87s-.15-4.92-.3-19.95Zm-5.94,0h8.7v1.2l-3.9.45h-.6l-4.2-.45Z"/><path class="cls-3" d="M128.37,181.74h-8.7v-1.2l3.9-.45h.6l4.2.45Zm-5.94,0c.09-3,.09-6.15.09-9.3v-4.77a32.84,32.84,0,0,1,.36-6.42,5.47,5.47,0,0,1,5.58-4.47c1.11,0,2.28.3,2.55,1.44a1.6,1.6,0,0,1-1.8,1.44,3.49,3.49,0,0,1-2.22-.87l-1-.75.24-.33.24,0,.06.24c-1.14.87-1.53,2-1.53,3.87s.15,4.92.3,20Z"/><polygon class="cls-4" points="50.82 36.45 64.6 29.73 86.38 29.73 99.71 36.45 96.6 45.3 87.27 45.3 64.82 45.3 55.94 45.3 50.82 36.45"/><path class="cls-5" d="M66.29,75.4l22.53,3.67,6-13.5a3.27,3.27,0,0,0,2.45-1.16c1.36-1.85-.61-5.11-.89-5.56-1.12-1.8-2-1.78-2.59-3.11-.47-1.11-.58-2.84,1-5.63l-20.3.18Z"/><rect class="cls-4" x="99.88" y="59.64" width="7.11" height="36.26" rx="1" transform="translate(38.22 -34.01) rotate(22.8)"/><circle class="cls-4" cx="115.19" cy="50.29" r="6.59"/><polygon class="cls-4" points="92.03 163.55 78.26 170.27 56.48 170.27 43.15 163.55 46.26 154.71 55.59 154.71 78.03 154.71 86.92 154.71 92.03 163.55"/><path class="cls-5" d="M76.57,124.6,54,120.93l-6,13.5a3.24,3.24,0,0,0-2.44,1.16c-1.36,1.85.61,5.11.89,5.56,1.12,1.8,2,1.78,2.59,3.11.47,1.11.57,2.84-1,5.63l20.29-.18Z"/><rect class="cls-4" x="35.9" y="103.95" width="7.11" height="36.42" rx="0.98" transform="translate(28.49 250.06) rotate(-157.2)"/><circle class="cls-4" cx="27.67" cy="149.71" r="6.59"/><polygon class="cls-4" points="99.71 116.31 105.82 102.11 83.19 96.25 88.01 84.66 65.27 80.85 59.05 80.85 68.98 50.29 54.82 50.29 45.49 77.3 43.15 83.39 37.16 97.59 59.66 103.45 54.85 115.03 77.59 118.84 83.81 119.15 73.87 149.71 88.03 149.71 97.37 122.7 99.71 116.31"/><use width="23.57" height="28.16" transform="translate(11.23 42.1)" xlink:href="#Spade_Inverted"/><use width="23.57" height="28.16" transform="translate(131.62 157.9) rotate(180)" xlink:href="#Spade_Inverted"/></svg>