<svg id="Colors" xmlns="http://www.w3.org/2000/svg" xmlns:xlink="http://www.w3.org/1999/xlink" viewBox="0 0 142.86 200"><defs><style>.cls-1{fill:#e0e1da;stroke:#0d3b69;}.cls-1,.cls-4{stroke-miterlimit:10;stroke-width:2px;}.cls-2{fill:#f3f3f0;}.cls-3{fill:#264066;}.cls-4{fill:#0d3b69;stroke:#e0e1da;}</style><symbol id="Heart_Inverted" data-name="Heart Inverted" viewBox="0 0 27.3 23.47"><path class="cls-1" d="M1,7.27A6.19,6.19,0,0,1,3.73,2.11a6.35,6.35,0,0,1,8,.65c.54.51,1.08,1,1.57,1.57.3.33.47.26.73,0,.49-.52,1-1,1.53-1.52a6.38,6.38,0,0,1,8.87.05,6.31,6.31,0,0,1,.12,8.9c-2.39,2.46-4.84,4.87-7.27,7.29-1.06,1.06-2.13,2.11-3.17,3.19-.32.32-.5.37-.85,0-2.37-2.41-4.77-4.79-7.16-7.18C5,14,3.86,12.86,2.77,11.75A6.26,6.26,0,0,1,1,7.27Z"/></symbol></defs><rect class="cls-2" width="142.86" height="200" rx="20.1"/><path class="cls-3" d="M14.4,19.46v-1.2h8.4v1.2l-3.9.45h-.6Zm4.5,17.25,3.9.45v1.2H14.4v-1.2l3.9-.45Zm-1.65-9.15c0-3.09,0-6.21-.09-9.3H20c-.09,3-.09,6.15-.09,9.3v2.28c0,2.31,0,5.43.09,8.52H17.16c.09-3,.09-6.15.09-9.3Zm1.29,3.54L29,18.26h1.8L18.54,33.05Zm5.55-5.79,7.26,13.05H28.53l-6-11.19ZM25.2,37.16l3.6-.45h.45l3.6.45v1.2H25.2Zm.33-17.7v-1.2h6.9v1.2l-3.3.45-.6.15Z"/><path class="cls-3" d="M117.66,162.84l-3.6.45h-.45l-3.6-.45v-1.2h7.65Zm-.33,17.7v1.2h-6.9v-1.2l3.3-.45.6-.15Zm1.44-5.85-7.26-13.05h2.82l6,11.19Zm5.55-5.79-10.5,12.84H112L124.32,167Zm-.36-5.61-3.9-.45v-1.2h8.4v1.2l-3.9.45Zm4.5,17.25v1.2h-8.4v-1.2l3.9-.45h.6Zm-2.85-8.1c0,3.09,0,6.21.09,9.3h-2.79c.09-3,.09-6.15.09-9.3v-2.28c0-2.31,0-5.43-.09-8.52h2.79c-.09,3-.09,6.15-.09,9.3Z"/><polyline class="cls-4" points="81.41 130.14 75.34 149.71 89.5 149.71 93.19 137.73 105.52 113.92 100.25 97.03 60.17 93.48 61.45 69.86 67.52 50.29 53.35 50.29 49.66 62.27 37.34 86.08 42.69 102.83 83.14 106.35 81.41 130.14 75.34 149.71 89.5 149.71 93.19 137.73 105.52 113.92"/><polygon class="cls-4" points="67.08 72.58 96.34 72.58 99.12 91.51 66.12 88.63 67.08 72.58"/><path class="cls-1" d="M67.81,67.77H96.23l.12-2.2c1.62-.17,7.94-.7,2.92-5.25-1.68-1.51-3.39-3.25-4-4.58-.47-1.11-.57-2.84,1-5.63L73,50.29Z"/><polygon class="cls-4" points="124 88.59 122.54 89.88 117.2 89.88 115.68 88.59 115.68 23.53 119.84 16.89 124 23.53 124 88.59"/><rect class="cls-4" x="115.68" y="108.98" width="8.31" height="10.98" rx="1"/><path class="cls-4" d="M130.53,91.2V103a.63.63,0,0,1-.63.62H109.77a.62.62,0,0,1-.62-.62V91.2a.62.62,0,0,1,1-.48l5.51,4.56H124l5.51-4.56A.62.62,0,0,1,130.53,91.2Z"/><polygon class="cls-4" points="86.09 45.3 63.65 45.3 54.76 45.3 54.68 36.45 54.68 29.82 59.23 32.26 63.53 28.48 70.64 32.26 76.61 28.14 83.73 32.26 90.97 28.48 95.23 32.26 99.96 29.82 99.96 36.45 99.74 45.3 90.85 45.3 86.09 45.3"/><polygon class="cls-4" points="75.78 127.42 46.52 127.42 43.74 108.49 76.74 111.37 75.78 127.42"/><path class="cls-1" d="M75.05,132.23H46.63l-.12,2.2c-1.63.17-7.94.7-2.92,5.25,1.67,1.51,3.39,3.25,4,4.58.46,1.11.57,2.84-1,5.63l23.31-.18Z"/><polygon class="cls-4" points="18.86 111.41 20.32 110.12 25.66 110.12 27.18 111.41 27.18 176.47 23.02 183.11 18.86 176.47 18.86 111.41"/><rect class="cls-4" x="18.86" y="80.03" width="8.31" height="10.98" rx="1"/><path class="cls-4" d="M12.33,108.8V97a.62.62,0,0,1,.62-.62H33.08a.63.63,0,0,1,.63.62V108.8a.62.62,0,0,1-1,.48l-5.51-4.56H18.86l-5.51,4.56A.62.62,0,0,1,12.33,108.8Z"/><polygon class="cls-4" points="56.76 154.71 79.21 154.71 88.09 154.71 88.18 163.55 88.18 170.19 83.63 167.74 79.33 171.52 72.22 167.74 66.24 171.86 59.13 167.74 51.88 171.52 47.63 167.74 42.9 170.19 42.9 163.55 43.12 154.71 52.01 154.71 56.76 154.71"/><use width="27.3" height="23.47" transform="translate(9.37 44.44)" xlink:href="#Heart_Inverted"/><use width="27.3" height="23.47" transform="translate(133.49 155.56) rotate(180)" xlink:href="#Heart_Inverted"/></svg>