<svg id="Colors" xmlns="http://www.w3.org/2000/svg" xmlns:xlink="http://www.w3.org/1999/xlink" viewBox="0 0 142.86 200"><defs><style>.cls-1,.cls-4,.cls-6{fill:#4f544b;}.cls-1,.cls-6{stroke:#e0e1da;}.cls-1,.cls-2,.cls-5,.cls-6{stroke-miterlimit:10;}.cls-1,.cls-2{stroke-width:2px;}.cls-2,.cls-5{fill:#e0e1da;stroke:#4f544b;}.cls-3{fill:#f3f3f0;}.cls-5,.cls-6{stroke-width:3px;}</style><symbol id="Club_Inverted" data-name="Club Inverted" viewBox="0 0 25.42 24.89"><path class="cls-2" d="M24.2,12.88c-.82-2.36-3.91-3.94-7.29-3.13a5.21,5.21,0,0,0,1.22-5.51A5.54,5.54,0,0,0,12.71,1c-2.42,0-4.6,1.11-5.42,3.24A5.19,5.19,0,0,0,8.51,9.75c-3.38-.81-6.47.77-7.29,3.13s1,4.72,1.11,4.84a6.38,6.38,0,0,0,5.6,2,7.18,7.18,0,0,0,2.33-.89c-.13.41-.23.76-.34,1.1a10.88,10.88,0,0,1-1.78,3.65c-.06.08-.18.16-.11.27s.17,0,.26,0h8.83c.09,0,.22,0,.27,0s-.05-.19-.11-.27a10.9,10.9,0,0,1-1.79-3.65c-.1-.34-.21-.69-.33-1.1a7.18,7.18,0,0,0,2.33.89,6.38,6.38,0,0,0,5.6-2C23.19,17.6,25,15.29,24.2,12.88Z"/></symbol><symbol id="Club" data-name="Club" viewBox="0 0 31.35 30.69"><path class="cls-1" d="M30.08,15.89c-1-3-4.91-4.93-9.14-3.92a6.54,6.54,0,0,0,1.53-6.91C21.44,2.4,18.68,1,15.67,1S9.91,2.4,8.88,5.06A6.54,6.54,0,0,0,10.41,12c-4.23-1-8.11,1-9.14,3.92S2.54,21.81,2.67,22c2.6,3.16,6.82,2.52,7,2.49a9,9,0,0,0,2.91-1.11l-.41,1.37A14,14,0,0,1,10,29.29c-.08.09-.22.2-.14.33s.22.05.33.05H21.21c.11,0,.27.06.33-.05s-.06-.24-.14-.33a13.76,13.76,0,0,1-2.24-4.58c-.13-.43-.26-.86-.42-1.37a9.19,9.19,0,0,0,2.92,1.11c.2,0,4.42.67,7-2.49C28.81,21.81,31.13,18.91,30.08,15.89Z"/></symbol></defs><rect class="cls-3" width="142.86" height="200" rx="20.1"/><path class="cls-4" d="M32.82,28.31c0,6.57-4.5,10.5-9.15,10.5s-9.18-3.66-9.18-10.5c0-6.57,4.56-10.5,9.18-10.5S32.82,21.47,32.82,28.31Zm-9.15,9c4.23,0,6-4.5,6-9s-1.77-9-6-9-6,4.5-6,9S19.44,37.31,23.67,37.31Zm-1.5,1.23V37.43l2.7.45c-.21,3.42,1.44,5.34,4.2,5.34a8.71,8.71,0,0,0,2.34-.36l.33,1a7.21,7.21,0,0,1-3.69,1C24.27,44.87,22.17,41.9,22.17,38.54Z"/><path class="cls-4" d="M110,171.69c0-6.57,4.5-10.5,9.15-10.5s9.18,3.66,9.18,10.5c0,6.57-4.56,10.5-9.18,10.5S110,178.53,110,171.69Zm10.65-10.23v1.11l-2.7-.45c.21-3.42-1.44-5.34-4.2-5.34a8.71,8.71,0,0,0-2.34.36l-.33-1a7.21,7.21,0,0,1,3.69-1C118.59,155.13,120.69,158.1,120.69,161.46Zm-1.5,1.23c-4.23,0-6,4.5-6,9s1.77,9,6,9,6-4.5,6-9S123.42,162.69,119.19,162.69Z"/><use width="25.42" height="24.89" transform="translate(10.31 43.74)" xlink:href="#Club_Inverted"/><use width="25.42" height="24.89" transform="translate(132.55 156.26) rotate(180)" xlink:href="#Club_Inverted"/><path class="cls-5" d="M67.81,75.4l26,.16,2.56-10c1.62-.17,6.27-2.64,1.55-6.72-1.71-1.48-2-1.78-2.59-3.11-.47-1.11-.57-2.84,1-5.63L73,50.29Z"/><rect class="cls-6" x="110.73" y="47.74" width="7.11" height="34.15" rx="0.99" transform="translate(17.16 -23.66) rotate(12.77)"/><polygon class="cls-6" points="103.75 85.3 117.66 88.07 89.21 149.71 75.05 149.71 83.55 119.85 75.64 120.26 49.08 120.26 39.11 114.7 25.19 111.93 53.65 50.29 67.81 50.29 59.3 80.15 93.42 80.15 103.75 85.3"/><polygon class="cls-6" points="86.09 45.3 63.65 45.3 54.76 45.3 53.42 36.45 50.75 29.82 57.53 32.26 63.53 28.48 70.64 32.26 76.61 28.14 83.73 32.26 90.97 28.48 96.97 32.26 103.75 29.82 101.08 36.45 99.74 45.3 90.85 45.3 86.09 45.3"/><path class="cls-5" d="M75.05,124.6l-26-.16-2.56,10c-1.63.17-6.27,2.64-1.56,6.72,1.71,1.48,2,1.78,2.6,3.11.46,1.11.57,2.84-1,5.63l23.31-.18Z"/><rect class="cls-6" x="25.02" y="118.09" width="7.11" height="34.17" rx="1.02" transform="translate(26.56 273.32) rotate(-167.23)"/><polygon class="cls-6" points="56.76 154.71 79.21 154.71 88.09 154.71 89.44 163.55 92.11 170.19 85.33 167.74 79.33 171.52 72.22 167.74 66.24 171.86 59.13 167.74 51.88 171.52 45.88 167.74 39.11 170.19 41.77 163.55 43.12 154.71 52.01 154.71 56.76 154.71"/><use width="31.35" height="30.69" transform="translate(111.74 15.18) rotate(12.77) scale(0.88)" xlink:href="#Club"/><use width="31.35" height="30.69" transform="translate(31.13 184.49) rotate(-167.23) scale(0.88)" xlink:href="#Club"/></svg>