<svg id="Colors" xmlns="http://www.w3.org/2000/svg" xmlns:xlink="http://www.w3.org/1999/xlink" viewBox="0 0 142.86 200"><defs><style>.cls-1{fill:#0d3b69;stroke:#e0e1da;}.cls-1,.cls-2{stroke-miterlimit:10;stroke-width:2px;}.cls-2{fill:#e0e1da;stroke:#0d3b69;}.cls-3{fill:#f3f3f0;}.cls-4{fill:#264066;}</style><symbol id="Diamond_Inverted" data-name="Diamond Inverted" viewBox="0 0 21.79 23.33"><path class="cls-2" d="M20.66,11.25c-3.75-2.4-8.38-8.57-9.51-10.12a.32.32,0,0,0-.51,0C9.51,2.68,4.88,8.85,1.14,11.25a.29.29,0,0,0,0,.5C4.68,14,9.48,20.57,10.64,22.2a.32.32,0,0,0,.52,0c1.15-1.63,6-8.22,9.5-10.45A.3.3,0,0,0,20.66,11.25Z"/></symbol><symbol id="Diamond" data-name="Diamond" viewBox="0 0 26.14 28.02"><path class="cls-1" d="M25,13.5C20.41,10.57,14.76,3,13.38,1.16a.38.38,0,0,0-.62,0C11.38,3,5.74,10.57,1.17,13.5a.36.36,0,0,0,0,.61c4.32,2.72,10.18,10.76,11.59,12.75a.38.38,0,0,0,.63,0c1.41-2,7.27-10,11.59-12.75A.36.36,0,0,0,25,13.5Z"/></symbol></defs><rect class="cls-3" width="142.86" height="200" rx="20.1"/><path class="cls-4" d="M32.82,28.31c0,6.57-4.5,10.5-9.15,10.5s-9.18-3.66-9.18-10.5c0-6.57,4.56-10.5,9.18-10.5S32.82,21.47,32.82,28.31Zm-9.15,9c4.23,0,6-4.5,6-9s-1.77-9-6-9-6,4.5-6,9S19.44,37.31,23.67,37.31Zm-1.5,1.23V37.43l2.7.45c-.21,3.42,1.44,5.34,4.2,5.34a8.71,8.71,0,0,0,2.34-.36l.33,1a7.21,7.21,0,0,1-3.69,1C24.27,44.87,22.17,41.9,22.17,38.54Z"/><path class="cls-4" d="M110,171.69c0-6.57,4.5-10.5,9.15-10.5s9.18,3.66,9.18,10.5c0,6.57-4.56,10.5-9.18,10.5S110,178.53,110,171.69Zm10.65-10.23v1.11l-2.7-.45c.21-3.42-1.44-5.34-4.2-5.34a8.71,8.71,0,0,0-2.34.36l-.33-1a7.21,7.21,0,0,1,3.69-1C118.59,155.13,120.69,158.1,120.69,161.46Zm-1.5,1.23c-4.23,0-6,4.5-6,9s1.77,9,6,9,6-4.5,6-9S123.42,162.69,119.19,162.69Z"/><use width="21.79" height="23.33" transform="translate(12.12 44.51)" xlink:href="#Diamond_Inverted"/><use width="21.79" height="23.33" transform="translate(130.74 155.49) rotate(180)" xlink:href="#Diamond_Inverted"/><path class="cls-2" d="M67.81,75.4l26,.16,2.56-10c1.62-.17,6.27-2.64,1.55-6.72-1.71-1.48-2-1.78-2.59-3.11-.47-1.11-.57-2.84,1-5.63L73,50.29Z"/><rect class="cls-1" x="110.73" y="47.74" width="7.11" height="34.15" rx="0.99" transform="translate(17.16 -23.66) rotate(12.77)"/><polygon class="cls-1" points="103.75 85.3 117.66 88.07 89.21 149.71 75.05 149.71 83.55 119.85 75.64 120.26 49.08 120.26 39.11 114.7 25.19 111.93 53.65 50.29 67.81 50.29 59.3 80.15 93.42 80.15 103.75 85.3"/><polygon class="cls-1" points="86.09 45.3 63.65 45.3 54.76 45.3 53.42 36.45 50.75 29.82 57.53 32.26 63.53 28.48 70.64 32.26 76.61 28.14 83.73 32.26 90.97 28.48 96.97 32.26 103.75 29.82 101.08 36.45 99.74 45.3 90.85 45.3 86.09 45.3"/><path class="cls-2" d="M75.05,124.6l-26-.16-2.56,10c-1.63.17-6.27,2.64-1.56,6.72,1.71,1.48,2,1.78,2.6,3.11.46,1.11.57,2.84-1,5.63l23.31-.18Z"/><rect class="cls-1" x="25.02" y="118.09" width="7.11" height="34.17" rx="1.02" transform="translate(26.56 273.32) rotate(-167.23)"/><polygon class="cls-1" points="56.76 154.71 79.21 154.71 88.09 154.71 89.44 163.55 92.11 170.19 85.33 167.74 79.33 171.52 72.22 167.74 66.24 171.86 59.13 167.74 51.88 171.52 45.88 167.74 39.11 170.19 41.77 163.55 43.12 154.71 52.01 154.71 56.76 154.71"/><use width="26.14" height="28.02" transform="translate(114.58 23.5) rotate(12.77) scale(0.7)" xlink:href="#Diamond"/><use width="26.14" height="28.02" transform="matrix(-0.68, -0.15, 0.15, -0.68, 28.67, 176.08)" xlink:href="#Diamond"/></svg>