<svg id="Colors" xmlns="http://www.w3.org/2000/svg" xmlns:xlink="http://www.w3.org/1999/xlink" viewBox="0 0 142.86 200"><defs><style>.cls-1{fill:#0d3b69;stroke:#e0e1da;}.cls-1,.cls-2{stroke-miterlimit:10;stroke-width:2px;}.cls-2{fill:#e0e1da;stroke:#0d3b69;}.cls-3{fill:#f3f3f0;}.cls-4{fill:#264066;}</style><symbol id="Heart_Inverted" data-name="Heart Inverted" viewBox="0 0 27.3 23.47"><path class="cls-2" d="M1,7.27A6.19,6.19,0,0,1,3.73,2.11a6.35,6.35,0,0,1,8,.65c.54.51,1.08,1,1.57,1.57.3.33.47.26.73,0,.49-.52,1-1,1.53-1.52a6.38,6.38,0,0,1,8.87.05,6.31,6.31,0,0,1,.12,8.9c-2.39,2.46-4.84,4.87-7.27,7.29-1.06,1.06-2.13,2.11-3.17,3.19-.32.32-.5.37-.85,0-2.37-2.41-4.77-4.79-7.16-7.18C5,14,3.86,12.86,2.77,11.75A6.26,6.26,0,0,1,1,7.27Z"/></symbol><symbol id="Heart" data-name="Heart" viewBox="0 0 31.93 27.41"><path class="cls-1" d="M1,8.42a7.32,7.32,0,0,1,3.23-6.1,7.51,7.51,0,0,1,9.43.76c.64.6,1.28,1.21,1.86,1.86.35.39.55.31.87,0,.57-.62,1.19-1.21,1.8-1.8a7.55,7.55,0,0,1,10.5.05,7.47,7.47,0,0,1,.14,10.54c-2.83,2.91-5.73,5.76-8.6,8.63-1.25,1.25-2.52,2.49-3.76,3.77-.37.38-.59.44-1,0C12.66,23.27,9.83,20.46,7,17.63c-1.3-1.3-2.61-2.6-3.9-3.91A7.33,7.33,0,0,1,1,8.42Z"/></symbol></defs><rect class="cls-3" width="142.86" height="200" rx="20.1"/><path class="cls-4" d="M32.82,28.31c0,6.57-4.5,10.5-9.15,10.5s-9.18-3.66-9.18-10.5c0-6.57,4.56-10.5,9.18-10.5S32.82,21.47,32.82,28.31Zm-9.15,9c4.23,0,6-4.5,6-9s-1.77-9-6-9-6,4.5-6,9S19.44,37.31,23.67,37.31Zm-1.5,1.23V37.43l2.7.45c-.21,3.42,1.44,5.34,4.2,5.34a8.71,8.71,0,0,0,2.34-.36l.33,1a7.21,7.21,0,0,1-3.69,1C24.27,44.87,22.17,41.9,22.17,38.54Z"/><path class="cls-4" d="M110,171.69c0-6.57,4.5-10.5,9.15-10.5s9.18,3.66,9.18,10.5c0,6.57-4.56,10.5-9.18,10.5S110,178.53,110,171.69Zm10.65-10.23v1.11l-2.7-.45c.21-3.42-1.44-5.34-4.2-5.34a8.71,8.71,0,0,0-2.34.36l-.33-1a7.21,7.21,0,0,1,3.69-1C118.59,155.13,120.69,158.1,120.69,161.46Zm-1.5,1.23c-4.23,0-6,4.5-6,9s1.77,9,6,9,6-4.5,6-9S123.42,162.69,119.19,162.69Z"/><use width="27.3" height="23.47" transform="translate(9.37 44.44)" xlink:href="#Heart_Inverted"/><use width="27.3" height="23.47" transform="translate(133.49 155.56) rotate(180)" xlink:href="#Heart_Inverted"/><path class="cls-2" d="M67.81,75.4l26,.16,2.56-10c1.62-.17,6.27-2.64,1.55-6.72-1.71-1.48-2-1.78-2.59-3.11-.47-1.11-.57-2.84,1-5.63L73,50.29Z"/><rect class="cls-1" x="110.73" y="47.74" width="7.11" height="34.15" rx="0.99" transform="translate(17.16 -23.66) rotate(12.77)"/><polygon class="cls-1" points="103.75 85.3 117.66 88.07 89.21 149.71 75.05 149.71 83.55 119.85 75.64 120.26 49.08 120.26 39.11 114.7 25.19 111.93 53.65 50.29 67.81 50.29 59.3 80.15 93.42 80.15 103.75 85.3"/><polygon class="cls-1" points="86.09 45.3 63.65 45.3 54.76 45.3 53.42 36.45 50.75 29.82 57.53 32.26 63.53 28.48 70.64 32.26 76.61 28.14 83.73 32.26 90.97 28.48 96.97 32.26 103.75 29.82 101.08 36.45 99.74 45.3 90.85 45.3 86.09 45.3"/><path class="cls-2" d="M75.05,124.6l-26-.16-2.56,10c-1.63.17-6.27,2.64-1.56,6.72,1.71,1.48,2,1.78,2.6,3.11.46,1.11.57,2.84-1,5.63l23.31-.18Z"/><rect class="cls-1" x="25.02" y="118.09" width="7.11" height="34.17" rx="1.02" transform="translate(26.56 273.32) rotate(-167.23)"/><polygon class="cls-1" points="56.76 154.71 79.21 154.71 88.09 154.71 89.44 163.55 92.11 170.19 85.33 167.74 79.33 171.52 72.22 167.74 66.24 171.86 59.13 167.74 51.88 171.52 45.88 167.74 39.11 170.19 41.77 163.55 43.12 154.71 52.01 154.71 56.76 154.71"/><use width="31.93" height="27.41" transform="translate(127.6 47.55) rotate(-167.23) scale(0.57)" xlink:href="#Heart"/><use width="31.93" height="27.41" transform="matrix(0.56, 0.13, -0.13, 0.56, 14.97, 152.45)" xlink:href="#Heart"/></svg>