<svg id="Colors" xmlns="http://www.w3.org/2000/svg" xmlns:xlink="http://www.w3.org/1999/xlink" viewBox="0 0 142.86 200"><defs><style>.cls-1,.cls-5{fill:#e0e1da;stroke:#4f544b;}.cls-1,.cls-4,.cls-5{stroke-miterlimit:10;}.cls-1{stroke-width:2px;}.cls-2{fill:#f3f3f0;}.cls-3,.cls-4{fill:#4f544b;}.cls-4{stroke:#e0e1da;}.cls-4,.cls-5{stroke-width:3px;}</style><symbol id="Spade_Inverted" data-name="Spade Inverted" viewBox="0 0 23.57 28.16"><path class="cls-1" d="M21.39,14.42a13.19,13.19,0,0,0-2.19-2.74c-.54-.54-1.09-1.07-1.62-1.63A38.16,38.16,0,0,1,14,5.63c-.39-.56-1.86-3.26-2.24-3.83-.38.57-1.76,3.27-2.15,3.83A38.16,38.16,0,0,1,6,10.05c-.53.56-1.08,1.09-1.62,1.63a13.57,13.57,0,0,0-2.2,2.74A6.82,6.82,0,0,0,1,18.77a4.07,4.07,0,0,0,1.4,2.76,5.87,5.87,0,0,0,5.18,1.21,7.63,7.63,0,0,0,2.46-.93L9.73,23a11.55,11.55,0,0,1-1.88,3.86c-.07.08-.19.17-.12.28s.18,0,.28,0h7.55c.1,0,.23,0,.28,0s-.05-.2-.12-.28A11.55,11.55,0,0,1,13.84,23l-.35-1.15a7.67,7.67,0,0,0,2.45.93,5.89,5.89,0,0,0,5.19-1.21,4.12,4.12,0,0,0,1.4-2.76A6.76,6.76,0,0,0,21.39,14.42Z"/></symbol></defs><rect class="cls-2" width="142.86" height="200" rx="20.1"/><path class="cls-3" d="M32.82,28.31c0,6.57-4.5,10.5-9.15,10.5s-9.18-3.66-9.18-10.5c0-6.57,4.56-10.5,9.18-10.5S32.82,21.47,32.82,28.31Zm-9.15,9c4.23,0,6-4.5,6-9s-1.77-9-6-9-6,4.5-6,9S19.44,37.31,23.67,37.31Zm-1.5,1.23V37.43l2.7.45c-.21,3.42,1.44,5.34,4.2,5.34a8.71,8.71,0,0,0,2.34-.36l.33,1a7.21,7.21,0,0,1-3.69,1C24.27,44.87,22.17,41.9,22.17,38.54Z"/><path class="cls-3" d="M110,171.69c0-6.57,4.5-10.5,9.15-10.5s9.18,3.66,9.18,10.5c0,6.57-4.56,10.5-9.18,10.5S110,178.53,110,171.69Zm10.65-10.23v1.11l-2.7-.45c.21-3.42-1.44-5.34-4.2-5.34a8.71,8.71,0,0,0-2.34.36l-.33-1a7.21,7.21,0,0,1,3.69-1C118.59,155.13,120.69,158.1,120.69,161.46Zm-1.5,1.23c-4.23,0-6,4.5-6,9s1.77,9,6,9,6-4.5,6-9S123.42,162.69,119.19,162.69Z"/><path class="cls-4" d="M129.13,35.65A11.06,11.06,0,0,0,127.86,33c-.34-.53-.68-1.05-1-1.6a31.18,31.18,0,0,1-2.08-4.22c-.21-.52-.91-3-1.11-3.49-.41.39-2,2.31-2.43,2.69a31.69,31.69,0,0,1-3.71,2.91c-.52.35-1.06.67-1.6,1a11.54,11.54,0,0,0-2.26,1.8,5.61,5.61,0,0,0-1.71,3.3,3.41,3.41,0,0,0,.62,2.47,4.87,4.87,0,0,0,4,1.93c.71,0,.37,2.56-.57,3.32-.07.05-.18.1-.15.21s.14.06.22.08l3,.69,3,.69c.08,0,.18.08.24,0s0-.17,0-.25c-.51-1.09.27-3.53.92-3.25a4.84,4.84,0,0,0,4.4,0,3.38,3.38,0,0,0,1.63-2A5.62,5.62,0,0,0,129.13,35.65Z"/><path class="cls-5" d="M67.81,75.4l26,.16,2.56-10c1.62-.17,6.27-2.64,1.55-6.72-1.71-1.48-2-1.78-2.59-3.11-.47-1.11-.57-2.84,1-5.63L73,50.29Z"/><rect class="cls-4" x="110.73" y="47.74" width="7.11" height="34.15" rx="0.99" transform="translate(17.16 -23.66) rotate(12.77)"/><polygon class="cls-4" points="103.75 85.3 117.66 88.07 89.21 149.71 75.05 149.71 83.55 119.85 75.64 120.26 49.08 120.26 39.11 114.7 25.19 111.93 53.65 50.29 67.81 50.29 59.3 80.15 93.42 80.15 103.75 85.3"/><polygon class="cls-4" points="86.09 45.3 63.65 45.3 54.76 45.3 53.42 36.45 50.75 29.82 57.53 32.26 63.53 28.48 70.64 32.26 76.61 28.14 83.73 32.26 90.97 28.48 96.97 32.26 103.75 29.82 101.08 36.45 99.74 45.3 90.85 45.3 86.09 45.3"/><path class="cls-4" d="M13.73,164.35A11.43,11.43,0,0,0,15,167c.34.53.69,1,1,1.6a31.23,31.23,0,0,1,2.09,4.22c.21.52.91,3,1.11,3.49.41-.39,2-2.31,2.43-2.69a32.43,32.43,0,0,1,3.7-2.91c.53-.35,1.07-.67,1.6-1a11.31,11.31,0,0,0,2.27-1.8,5.66,5.66,0,0,0,1.71-3.3,3.37,3.37,0,0,0-.63-2.47,4.84,4.84,0,0,0-4-1.93c-.71,0-.37-2.56.57-3.32.06-.05.18-.1.14-.21s-.14-.06-.21-.08l-3-.69-3-.69c-.08,0-.18-.08-.24,0s0,.17,0,.25c.51,1.09-.27,3.53-.93,3.25a4.82,4.82,0,0,0-4.39,0,3.35,3.35,0,0,0-1.63,2A5.62,5.62,0,0,0,13.73,164.35Z"/><path class="cls-5" d="M75.05,124.6l-26-.16-2.56,10c-1.63.17-6.27,2.64-1.56,6.72,1.71,1.48,2,1.78,2.6,3.11.46,1.11.57,2.84-1,5.63l23.31-.18Z"/><rect class="cls-4" x="25.02" y="118.09" width="7.11" height="34.17" rx="1.02" transform="translate(26.56 273.32) rotate(-167.23)"/><polygon class="cls-4" points="56.76 154.71 79.21 154.71 88.09 154.71 89.44 163.55 92.11 170.19 85.33 167.74 79.33 171.52 72.22 167.74 66.24 171.86 59.13 167.74 51.88 171.52 45.88 167.74 39.11 170.19 41.77 163.55 43.12 154.71 52.01 154.71 56.76 154.71"/><use width="23.57" height="28.16" transform="translate(11.23 42.1)" xlink:href="#Spade_Inverted"/><use width="23.57" height="28.16" transform="translate(131.62 157.9) rotate(180)" xlink:href="#Spade_Inverted"/></svg>