<svg xmlns="http://www.w3.org/2000/svg" xmlns:xlink="http://www.w3.org/1999/xlink" viewBox="0 0 500 500"><defs><style>.cls-1{fill:none;}.cls-2{isolation:isolate;}.cls-3{fill:url(#linear-gradient);}.cls-4{clip-path:url(#clip-path);}.cls-5,.cls-7{fill:#051628;}.cls-5{mix-blend-mode:soft-light;}.cls-6{fill:url(#linear-gradient-2);}.cls-7{mix-blend-mode:color-dodge;}.cls-8{fill:#fff;}</style><linearGradient id="linear-gradient" x1="249.49" y1="455.08" x2="249.49" y2="-60.59" gradientUnits="userSpaceOnUse"><stop offset="0" stop-color="#1976d2"/><stop offset="0.3" stop-color="#1050b8"/><stop offset="0.57" stop-color="#0935a5"/><stop offset="0.82" stop-color="#042499"/><stop offset="1" stop-color="#031e95"/></linearGradient><clipPath id="clip-path"><circle class="cls-1" cx="249.49" cy="250" r="250"/></clipPath><linearGradient id="linear-gradient-2" x1="250" y1="29.13" x2="250" y2="581.1" gradientUnits="userSpaceOnUse"><stop offset="0" stop-color="#1976d2"/><stop offset="0.32" stop-color="#1874d0"/><stop offset="0.51" stop-color="#166bcb"/><stop offset="0.67" stop-color="#135dc1"/><stop offset="0.81" stop-color="#0e49b3"/><stop offset="0.93" stop-color="#072fa1"/><stop offset="1" stop-color="#031e95"/></linearGradient></defs><g class="cls-2"><g id="Colors"><circle class="cls-3" cx="249.49" cy="250" r="250"/><g class="cls-4"><polyline class="cls-5" points="96.94 356.84 285.66 555.84 571.77 388.63 249.49 48.8"/></g><path class="cls-6" d="M402.53,249c-9.58-16.12-21.51-30.4-34.8-43.53-8.63-8.53-17.4-16.91-25.74-25.74a605.17,605.17,0,0,1-57.1-70.28c-6.19-8.89-29.61-51.65-35.62-60.67-6,9-28,51.78-34.16,60.67A605.17,605.17,0,0,1,158,179.75c-8.34,8.83-17.11,17.21-25.74,25.74C119,218.62,107.05,232.9,97.47,249c-12.65,21.29-21,43.58-18,69.07,2,17.53,9.13,32.49,22.27,43.77,23.88,20.49,52.07,24.95,82.29,19.25a121.15,121.15,0,0,0,39-14.85c-2.1,6.9-3.86,12.64-5.61,18.39-6.69,22-15.59,42.92-29.89,61.22-1,1.28-3,2.67-1.9,4.45.84,1.4,2.94.71,4.48.71H309.93c1.54,0,3.64.69,4.48-.71,1.06-1.78-.89-3.17-1.9-4.45-14.3-18.3-23.2-39.22-29.89-61.22-1.75-5.75-3.51-11.49-5.61-18.39a121.15,121.15,0,0,0,39,14.85c30.22,5.7,58.41,1.24,82.29-19.25,13.14-11.28,20.25-26.24,22.27-43.77C423.5,292.6,415.18,270.31,402.53,249Z"/><g class="cls-4"><path class="cls-7" d="M425.59,71.61,299.9,82.8,287.72,196.71c16.56-13.69,39.43-22.15,64.69-22.15,50.53,0,63.48,33.87,63.48,75.65s-12.95,75.65-63.48,75.65c-21.8,0-48.43-4.89-64.15-15.41l227.13,237.6L649,311.8Z"/></g><path class="cls-8" d="M279.74,199.47,292.52,71.61H424.66V92.5H310.89l-9,87.7a81.8,81.8,0,0,1,22.33-10.54,91.52,91.52,0,0,1,27-3.87A80.5,80.5,0,0,1,383.47,172,69.32,69.32,0,0,1,408,189.47a78.18,78.18,0,0,1,15.49,26.84,103,103,0,0,1,5.4,33.94,119.63,119.63,0,0,1-4.68,34,78.25,78.25,0,0,1-14.32,27.64,67.91,67.91,0,0,1-24.31,18.64q-14.69,6.84-34.67,6.84a91.62,91.62,0,0,1-30.34-4.86,71.05,71.05,0,0,1-41.6-37.1,91,91,0,0,1-8.38-30.61h20.89a76.7,76.7,0,0,0,6.31,22.87A54.06,54.06,0,0,0,310,304.82a51.48,51.48,0,0,0,17.83,10.71,67.51,67.51,0,0,0,23.05,3.7q14.4,0,25-5.23a48.75,48.75,0,0,0,17.65-14.49,62.42,62.42,0,0,0,10.36-21.79,105.2,105.2,0,0,0,3.33-27.11A78.76,78.76,0,0,0,403.19,225a60.91,60.91,0,0,0-11.8-20.71,55.21,55.21,0,0,0-18.82-13.87,60,60,0,0,0-25.12-5,99.23,99.23,0,0,0-15.22,1.08,58.77,58.77,0,0,0-13,3.51,69.47,69.47,0,0,0-11.53,6,84.66,84.66,0,0,0-10.9,8.37Z"/></g></g></svg>