<svg id="Colors" xmlns="http://www.w3.org/2000/svg" xmlns:xlink="http://www.w3.org/1999/xlink" viewBox="0 0 142.86 200"><defs><style>.cls-1{fill:none;}.cls-2{fill:#f3f3f0;}.cls-3{clip-path:url(#clip-path);}.cls-4,.cls-5{fill:#662b1c;}.cls-4{stroke:#e0e1da;stroke-miterlimit:10;stroke-width:2px;}.cls-6{opacity:0.75;}.cls-7{fill:#a8a9a3;}</style><clipPath id="clip-path"><rect class="cls-1" width="142.86" height="200" rx="20.1"/></clipPath></defs><rect class="cls-2" width="142.86" height="200" rx="20.1"/><g class="cls-3"><path class="cls-4" d="M17.63,8.45C14.44,6.67,10.48,2.11,9.52,1a.3.3,0,0,0-.44,0C8.12,2.11,4.17,6.67,1,8.45a.21.21,0,0,0,0,.37c3,1.64,7.12,6.52,8.11,7.73a.3.3,0,0,0,.44,0c1-1.21,5.09-6.09,8.11-7.73A.2.2,0,0,0,17.63,8.45Z"/><path class="cls-4" d="M35.38,8.45C32.19,6.67,28.23,2.11,27.27,1a.3.3,0,0,0-.44,0c-1,1.15-4.91,5.71-8.11,7.49a.21.21,0,0,0,0,.37c3,1.64,7.12,6.52,8.11,7.73a.3.3,0,0,0,.44,0c1-1.21,5.09-6.09,8.11-7.73A.2.2,0,0,0,35.38,8.45Z"/><path class="cls-4" d="M17.63,25c-3.19-1.78-7.15-6.34-8.11-7.49a.3.3,0,0,0-.44,0C8.12,18.63,4.17,23.19,1,25a.21.21,0,0,0,0,.37C4,27,8.09,31.86,9.08,33.07a.3.3,0,0,0,.44,0c1-1.21,5.09-6.09,8.11-7.73A.2.2,0,0,0,17.63,25Z"/><path class="cls-4" d="M35.38,25c-3.19-1.78-7.15-6.34-8.11-7.49a.3.3,0,0,0-.44,0c-1,1.15-4.91,5.71-8.11,7.49a.21.21,0,0,0,0,.37c3,1.64,7.12,6.52,8.11,7.73a.3.3,0,0,0,.44,0c1-1.21,5.09-6.09,8.11-7.73A.2.2,0,0,0,35.38,25Z"/><path class="cls-4" d="M53.14,8.45C49.94,6.67,46,2.11,45,1a.3.3,0,0,0-.44,0c-1,1.15-4.91,5.71-8.11,7.49a.21.21,0,0,0,0,.37c3,1.64,7.13,6.52,8.11,7.73a.3.3,0,0,0,.44,0c1-1.21,5.09-6.09,8.11-7.73A.21.21,0,0,0,53.14,8.45Z"/><path class="cls-4" d="M70.89,8.45C67.69,6.67,63.74,2.11,62.77,1a.3.3,0,0,0-.44,0c-1,1.15-4.91,5.71-8.11,7.49a.21.21,0,0,0,0,.37c3,1.64,7.13,6.52,8.11,7.73a.3.3,0,0,0,.44,0c1-1.21,5.09-6.09,8.11-7.73A.21.21,0,0,0,70.89,8.45Z"/><path class="cls-4" d="M53.14,25C49.94,23.19,46,18.63,45,17.48a.3.3,0,0,0-.44,0c-1,1.15-4.91,5.71-8.11,7.49a.21.21,0,0,0,0,.37c3,1.64,7.13,6.52,8.11,7.73a.3.3,0,0,0,.44,0c1-1.21,5.09-6.09,8.11-7.73A.21.21,0,0,0,53.14,25Z"/><path class="cls-4" d="M70.89,25c-3.2-1.78-7.15-6.34-8.12-7.49a.3.3,0,0,0-.44,0c-1,1.15-4.91,5.71-8.11,7.49a.21.21,0,0,0,0,.37c3,1.64,7.13,6.52,8.11,7.73a.3.3,0,0,0,.44,0c1-1.21,5.09-6.09,8.11-7.73A.21.21,0,0,0,70.89,25Z"/><path class="cls-4" d="M88.64,8.45C85.44,6.67,81.49,2.11,80.52,1a.3.3,0,0,0-.44,0c-1,1.15-4.91,5.71-8.11,7.49a.21.21,0,0,0,0,.37c3,1.64,7.13,6.52,8.11,7.73a.3.3,0,0,0,.44,0c1-1.21,5.09-6.09,8.11-7.73A.21.21,0,0,0,88.64,8.45Z"/><path class="cls-4" d="M106.39,8.45c-3.2-1.78-7.15-6.34-8.12-7.49a.29.29,0,0,0-.43,0c-1,1.15-4.92,5.71-8.12,7.49a.21.21,0,0,0,0,.37c3,1.64,7.13,6.52,8.11,7.73a.3.3,0,0,0,.44,0c1-1.21,5.09-6.09,8.11-7.73A.21.21,0,0,0,106.39,8.45Z"/><path class="cls-4" d="M88.64,25c-3.2-1.78-7.15-6.34-8.12-7.49a.3.3,0,0,0-.44,0c-1,1.15-4.91,5.71-8.11,7.49a.21.21,0,0,0,0,.37c3,1.64,7.13,6.52,8.11,7.73a.3.3,0,0,0,.44,0c1-1.21,5.09-6.09,8.11-7.73A.21.21,0,0,0,88.64,25Z"/><path class="cls-4" d="M106.39,25c-3.2-1.78-7.15-6.34-8.12-7.49a.29.29,0,0,0-.43,0c-1,1.15-4.92,5.71-8.12,7.49a.21.21,0,0,0,0,.37c3,1.64,7.13,6.52,8.11,7.73a.3.3,0,0,0,.44,0c1-1.21,5.09-6.09,8.11-7.73A.21.21,0,0,0,106.39,25Z"/><path class="cls-4" d="M124.14,8.45C120.94,6.67,117,2.11,116,1a.29.29,0,0,0-.43,0c-1,1.15-4.92,5.71-8.12,7.49a.21.21,0,0,0,0,.37c3,1.64,7.13,6.52,8.11,7.73a.31.31,0,0,0,.45,0c1-1.21,5.08-6.09,8.11-7.73A.21.21,0,0,0,124.14,8.45Z"/><path class="cls-4" d="M141.89,8.45c-3.2-1.78-7.15-6.34-8.12-7.49a.29.29,0,0,0-.43,0c-1,1.15-4.92,5.71-8.12,7.49a.21.21,0,0,0,0,.37c3,1.64,7.13,6.52,8.11,7.73a.31.31,0,0,0,.45,0c1-1.21,5.08-6.09,8.11-7.73A.21.21,0,0,0,141.89,8.45Z"/><path class="cls-4" d="M124.14,25c-3.2-1.78-7.15-6.34-8.12-7.49a.29.29,0,0,0-.43,0c-1,1.15-4.92,5.71-8.12,7.49a.21.21,0,0,0,0,.37c3,1.64,7.13,6.52,8.11,7.73a.31.31,0,0,0,.45,0c1-1.21,5.08-6.09,8.11-7.73A.21.21,0,0,0,124.14,25Z"/><path class="cls-4" d="M141.89,25c-3.2-1.78-7.15-6.34-8.12-7.49a.29.29,0,0,0-.43,0c-1,1.15-4.92,5.71-8.12,7.49a.21.21,0,0,0,0,.37c3,1.64,7.13,6.52,8.11,7.73a.31.31,0,0,0,.45,0c1-1.21,5.08-6.09,8.11-7.73A.21.21,0,0,0,141.89,25Z"/><path class="cls-4" d="M17.63,41.62c-3.19-1.78-7.15-6.35-8.11-7.49a.3.3,0,0,0-.44,0c-1,1.14-4.91,5.71-8.11,7.49A.2.2,0,0,0,1,42c3,1.65,7.12,6.53,8.11,7.74a.3.3,0,0,0,.44,0c1-1.21,5.09-6.09,8.11-7.74A.19.19,0,0,0,17.63,41.62Z"/><path class="cls-4" d="M35.38,41.62c-3.19-1.78-7.15-6.35-8.11-7.49a.3.3,0,0,0-.44,0c-1,1.14-4.91,5.71-8.11,7.49a.2.2,0,0,0,0,.36c3,1.65,7.12,6.53,8.11,7.74a.3.3,0,0,0,.44,0c1-1.21,5.09-6.09,8.11-7.74A.2.2,0,0,0,35.38,41.62Z"/><path class="cls-4" d="M17.63,58.14c-3.19-1.78-7.15-6.35-8.11-7.49a.3.3,0,0,0-.44,0c-1,1.14-4.91,5.71-8.11,7.49a.21.21,0,0,0,0,.37C4,60.15,8.09,65,9.08,66.24a.3.3,0,0,0,.44,0c1-1.21,5.09-6.09,8.11-7.73A.2.2,0,0,0,17.63,58.14Z"/><path class="cls-4" d="M35.38,58.14c-3.19-1.78-7.15-6.35-8.11-7.49a.3.3,0,0,0-.44,0c-1,1.14-4.91,5.71-8.11,7.49a.21.21,0,0,0,0,.37c3,1.64,7.12,6.52,8.11,7.73a.3.3,0,0,0,.44,0c1-1.21,5.09-6.09,8.11-7.73A.2.2,0,0,0,35.38,58.14Z"/><path class="cls-4" d="M53.14,41.62C49.94,39.84,46,35.27,45,34.13a.3.3,0,0,0-.44,0c-1,1.14-4.91,5.71-8.11,7.49a.2.2,0,0,0,0,.36c3,1.65,7.13,6.53,8.11,7.74a.3.3,0,0,0,.44,0c1-1.21,5.09-6.09,8.11-7.74A.2.2,0,0,0,53.14,41.62Z"/><path class="cls-4" d="M70.89,41.62c-3.2-1.78-7.15-6.35-8.12-7.49a.3.3,0,0,0-.44,0c-1,1.14-4.91,5.71-8.11,7.49a.2.2,0,0,0,0,.36c3,1.65,7.13,6.53,8.11,7.74a.3.3,0,0,0,.44,0c1-1.21,5.09-6.09,8.11-7.74A.2.2,0,0,0,70.89,41.62Z"/><path class="cls-4" d="M53.14,58.14C49.94,56.36,46,51.79,45,50.65a.3.3,0,0,0-.44,0c-1,1.14-4.91,5.71-8.11,7.49a.21.21,0,0,0,0,.37c3,1.64,7.13,6.52,8.11,7.73a.3.3,0,0,0,.44,0c1-1.21,5.09-6.09,8.11-7.73A.21.21,0,0,0,53.14,58.14Z"/><path class="cls-4" d="M70.89,58.14c-3.2-1.78-7.15-6.35-8.12-7.49a.3.3,0,0,0-.44,0c-1,1.14-4.91,5.71-8.11,7.49a.21.21,0,0,0,0,.37c3,1.64,7.13,6.52,8.11,7.73a.3.3,0,0,0,.44,0c1-1.21,5.09-6.09,8.11-7.73A.21.21,0,0,0,70.89,58.14Z"/><path class="cls-4" d="M88.64,41.62c-3.2-1.78-7.15-6.35-8.12-7.49a.3.3,0,0,0-.44,0c-1,1.14-4.91,5.71-8.11,7.49A.2.2,0,0,0,72,42c3,1.65,7.13,6.53,8.11,7.74a.3.3,0,0,0,.44,0c1-1.21,5.09-6.09,8.11-7.74A.2.2,0,0,0,88.64,41.62Z"/><path class="cls-4" d="M106.39,41.62c-3.2-1.78-7.15-6.35-8.12-7.49a.29.29,0,0,0-.43,0c-1,1.14-4.92,5.71-8.12,7.49a.2.2,0,0,0,0,.36c3,1.65,7.13,6.53,8.11,7.74a.3.3,0,0,0,.44,0c1-1.21,5.09-6.09,8.11-7.74A.2.2,0,0,0,106.39,41.62Z"/><path class="cls-4" d="M88.64,58.14c-3.2-1.78-7.15-6.35-8.12-7.49a.3.3,0,0,0-.44,0c-1,1.14-4.91,5.71-8.11,7.49a.21.21,0,0,0,0,.37c3,1.64,7.13,6.52,8.11,7.73a.3.3,0,0,0,.44,0c1-1.21,5.09-6.09,8.11-7.73A.21.21,0,0,0,88.64,58.14Z"/><path class="cls-4" d="M106.39,58.14c-3.2-1.78-7.15-6.35-8.12-7.49a.29.29,0,0,0-.43,0c-1,1.14-4.92,5.71-8.12,7.49a.21.21,0,0,0,0,.37c3,1.64,7.13,6.52,8.11,7.73a.3.3,0,0,0,.44,0c1-1.21,5.09-6.09,8.11-7.73A.21.21,0,0,0,106.39,58.14Z"/><path class="cls-4" d="M124.14,41.62c-3.2-1.78-7.15-6.35-8.12-7.49a.29.29,0,0,0-.43,0c-1,1.14-4.92,5.71-8.12,7.49a.2.2,0,0,0,0,.36c3,1.65,7.13,6.53,8.11,7.74a.31.31,0,0,0,.45,0c1-1.21,5.08-6.09,8.11-7.74A.2.2,0,0,0,124.14,41.62Z"/><path class="cls-4" d="M141.89,41.62c-3.2-1.78-7.15-6.35-8.12-7.49a.29.29,0,0,0-.43,0c-1,1.14-4.92,5.71-8.12,7.49a.2.2,0,0,0,0,.36c3,1.65,7.13,6.53,8.11,7.74a.31.31,0,0,0,.45,0c1-1.21,5.08-6.09,8.11-7.74A.2.2,0,0,0,141.89,41.62Z"/><path class="cls-4" d="M124.14,58.14c-3.2-1.78-7.15-6.35-8.12-7.49a.29.29,0,0,0-.43,0c-1,1.14-4.92,5.71-8.12,7.49a.21.21,0,0,0,0,.37c3,1.64,7.13,6.52,8.11,7.73a.31.31,0,0,0,.45,0c1-1.21,5.08-6.09,8.11-7.73A.21.21,0,0,0,124.14,58.14Z"/><path class="cls-4" d="M141.89,58.14c-3.2-1.78-7.15-6.35-8.12-7.49a.29.29,0,0,0-.43,0c-1,1.14-4.92,5.71-8.12,7.49a.21.21,0,0,0,0,.37c3,1.64,7.13,6.52,8.11,7.73a.31.31,0,0,0,.45,0c1-1.21,5.08-6.09,8.11-7.73A.21.21,0,0,0,141.89,58.14Z"/><path class="cls-4" d="M17.63,74.78C14.44,73,10.48,68.44,9.52,67.3a.3.3,0,0,0-.44,0C8.12,68.44,4.17,73,1,74.78a.21.21,0,0,0,0,.37c3,1.65,7.12,6.53,8.11,7.73a.28.28,0,0,0,.44,0c1-1.2,5.09-6.08,8.11-7.73A.2.2,0,0,0,17.63,74.78Z"/><path class="cls-4" d="M35.38,74.78c-3.19-1.77-7.15-6.34-8.11-7.48a.3.3,0,0,0-.44,0c-1,1.14-4.91,5.71-8.11,7.48a.21.21,0,0,0,0,.37c3,1.65,7.12,6.53,8.11,7.73a.28.28,0,0,0,.44,0c1-1.2,5.09-6.08,8.11-7.73A.2.2,0,0,0,35.38,74.78Z"/><path class="cls-4" d="M17.63,91.3c-3.19-1.77-7.15-6.34-8.11-7.48a.3.3,0,0,0-.44,0C8.12,85,4.17,89.53,1,91.3a.21.21,0,0,0,0,.37c3,1.65,7.12,6.53,8.11,7.73a.28.28,0,0,0,.44,0c1-1.2,5.09-6.08,8.11-7.73A.2.2,0,0,0,17.63,91.3Z"/><path class="cls-4" d="M35.38,91.3c-3.19-1.77-7.15-6.34-8.11-7.48a.3.3,0,0,0-.44,0c-1,1.14-4.91,5.71-8.11,7.48a.21.21,0,0,0,0,.37c3,1.65,7.12,6.53,8.11,7.73a.28.28,0,0,0,.44,0c1-1.2,5.09-6.08,8.11-7.73A.2.2,0,0,0,35.38,91.3Z"/><path class="cls-4" d="M53.14,74.78C49.94,73,46,68.44,45,67.3a.3.3,0,0,0-.44,0c-1,1.14-4.91,5.71-8.11,7.48a.21.21,0,0,0,0,.37c3,1.65,7.13,6.53,8.11,7.73a.28.28,0,0,0,.44,0c1-1.2,5.09-6.08,8.11-7.73A.21.21,0,0,0,53.14,74.78Z"/><path class="cls-4" d="M70.89,74.78c-3.2-1.77-7.15-6.34-8.12-7.48a.3.3,0,0,0-.44,0c-1,1.14-4.91,5.71-8.11,7.48a.21.21,0,0,0,0,.37c3,1.65,7.13,6.53,8.11,7.73a.28.28,0,0,0,.44,0c1-1.2,5.09-6.08,8.11-7.73A.21.21,0,0,0,70.89,74.78Z"/><path class="cls-4" d="M53.14,91.3C49.94,89.53,46,85,45,83.82a.3.3,0,0,0-.44,0c-1,1.14-4.91,5.71-8.11,7.48a.21.21,0,0,0,0,.37c3,1.65,7.13,6.53,8.11,7.73a.28.28,0,0,0,.44,0c1-1.2,5.09-6.08,8.11-7.73A.21.21,0,0,0,53.14,91.3Z"/><path class="cls-4" d="M70.89,91.3c-3.2-1.77-7.15-6.34-8.12-7.48a.3.3,0,0,0-.44,0c-1,1.14-4.91,5.71-8.11,7.48a.21.21,0,0,0,0,.37c3,1.65,7.13,6.53,8.11,7.73a.28.28,0,0,0,.44,0c1-1.2,5.09-6.08,8.11-7.73A.21.21,0,0,0,70.89,91.3Z"/><path class="cls-4" d="M88.64,74.78c-3.2-1.77-7.15-6.34-8.12-7.48a.3.3,0,0,0-.44,0c-1,1.14-4.91,5.71-8.11,7.48a.21.21,0,0,0,0,.37c3,1.65,7.13,6.53,8.11,7.73a.28.28,0,0,0,.44,0c1-1.2,5.09-6.08,8.11-7.73A.21.21,0,0,0,88.64,74.78Z"/><path class="cls-4" d="M106.39,74.78c-3.2-1.77-7.15-6.34-8.12-7.48a.29.29,0,0,0-.43,0c-1,1.14-4.92,5.71-8.12,7.48a.21.21,0,0,0,0,.37c3,1.65,7.13,6.53,8.11,7.73a.28.28,0,0,0,.44,0c1-1.2,5.09-6.08,8.11-7.73A.21.21,0,0,0,106.39,74.78Z"/><path class="cls-4" d="M88.64,91.3c-3.2-1.77-7.15-6.34-8.12-7.48a.3.3,0,0,0-.44,0c-1,1.14-4.91,5.71-8.11,7.48a.21.21,0,0,0,0,.37c3,1.65,7.13,6.53,8.11,7.73a.28.28,0,0,0,.44,0c1-1.2,5.09-6.08,8.11-7.73A.21.21,0,0,0,88.64,91.3Z"/><path class="cls-4" d="M106.39,91.3c-3.2-1.77-7.15-6.34-8.12-7.48a.29.29,0,0,0-.43,0c-1,1.14-4.92,5.71-8.12,7.48a.21.21,0,0,0,0,.37c3,1.65,7.13,6.53,8.11,7.73a.28.28,0,0,0,.44,0c1-1.2,5.09-6.08,8.11-7.73A.21.21,0,0,0,106.39,91.3Z"/><path class="cls-4" d="M124.14,74.78C120.94,73,117,68.44,116,67.3a.29.29,0,0,0-.43,0c-1,1.14-4.92,5.71-8.12,7.48a.21.21,0,0,0,0,.37c3,1.65,7.13,6.53,8.11,7.73a.29.29,0,0,0,.45,0c1-1.2,5.08-6.08,8.11-7.73A.21.21,0,0,0,124.14,74.78Z"/><path class="cls-4" d="M141.89,74.78c-3.2-1.77-7.15-6.34-8.12-7.48a.29.29,0,0,0-.43,0c-1,1.14-4.92,5.71-8.12,7.48a.21.21,0,0,0,0,.37c3,1.65,7.13,6.53,8.11,7.73a.29.29,0,0,0,.45,0c1-1.2,5.08-6.08,8.11-7.73A.21.21,0,0,0,141.89,74.78Z"/><path class="cls-4" d="M124.14,91.3C120.94,89.53,117,85,116,83.82a.29.29,0,0,0-.43,0c-1,1.14-4.92,5.71-8.12,7.48a.21.21,0,0,0,0,.37c3,1.65,7.13,6.53,8.11,7.73a.29.29,0,0,0,.45,0c1-1.2,5.08-6.08,8.11-7.73A.21.21,0,0,0,124.14,91.3Z"/><path class="cls-4" d="M141.89,91.3c-3.2-1.77-7.15-6.34-8.12-7.48a.29.29,0,0,0-.43,0c-1,1.14-4.92,5.71-8.12,7.48a.21.21,0,0,0,0,.37c3,1.65,7.13,6.53,8.11,7.73a.29.29,0,0,0,.45,0c1-1.2,5.08-6.08,8.11-7.73A.21.21,0,0,0,141.89,91.3Z"/><path class="cls-4" d="M17.63,108c-3.19-1.78-7.15-6.34-8.11-7.48a.3.3,0,0,0-.44,0c-1,1.14-4.91,5.7-8.11,7.48a.21.21,0,0,0,0,.37c3,1.65,7.12,6.53,8.11,7.73a.3.3,0,0,0,.44,0c1-1.2,5.09-6.08,8.11-7.73A.2.2,0,0,0,17.63,108Z"/><path class="cls-4" d="M35.38,108c-3.19-1.78-7.15-6.34-8.11-7.48a.3.3,0,0,0-.44,0c-1,1.14-4.91,5.7-8.11,7.48a.21.21,0,0,0,0,.37c3,1.65,7.12,6.53,8.11,7.73a.3.3,0,0,0,.44,0c1-1.2,5.09-6.08,8.11-7.73A.2.2,0,0,0,35.38,108Z"/><path class="cls-4" d="M17.63,124.47c-3.19-1.77-7.15-6.34-8.11-7.48a.3.3,0,0,0-.44,0c-1,1.14-4.91,5.71-8.11,7.48a.21.21,0,0,0,0,.37c3,1.65,7.12,6.53,8.11,7.73a.3.3,0,0,0,.44,0c1-1.2,5.09-6.08,8.11-7.73A.2.2,0,0,0,17.63,124.47Z"/><path class="cls-4" d="M35.38,124.47c-3.19-1.77-7.15-6.34-8.11-7.48a.3.3,0,0,0-.44,0c-1,1.14-4.91,5.71-8.11,7.48a.21.21,0,0,0,0,.37c3,1.65,7.12,6.53,8.11,7.73a.3.3,0,0,0,.44,0c1-1.2,5.09-6.08,8.11-7.73A.2.2,0,0,0,35.38,124.47Z"/><path class="cls-4" d="M53.14,108c-3.2-1.78-7.16-6.34-8.12-7.48a.3.3,0,0,0-.44,0c-1,1.14-4.91,5.7-8.11,7.48a.21.21,0,0,0,0,.37c3,1.65,7.13,6.53,8.11,7.73a.3.3,0,0,0,.44,0c1-1.2,5.09-6.08,8.11-7.73A.21.21,0,0,0,53.14,108Z"/><path class="cls-4" d="M70.89,108c-3.2-1.78-7.15-6.34-8.12-7.48a.3.3,0,0,0-.44,0c-1,1.14-4.91,5.7-8.11,7.48a.21.21,0,0,0,0,.37c3,1.65,7.13,6.53,8.11,7.73a.3.3,0,0,0,.44,0c1-1.2,5.09-6.08,8.11-7.73A.21.21,0,0,0,70.89,108Z"/><path class="cls-4" d="M53.14,124.47C49.94,122.7,46,118.13,45,117a.3.3,0,0,0-.44,0c-1,1.14-4.91,5.71-8.11,7.48a.21.21,0,0,0,0,.37c3,1.65,7.13,6.53,8.11,7.73a.3.3,0,0,0,.44,0c1-1.2,5.09-6.08,8.11-7.73A.21.21,0,0,0,53.14,124.47Z"/><path class="cls-4" d="M70.89,124.47c-3.2-1.77-7.15-6.34-8.12-7.48a.3.3,0,0,0-.44,0c-1,1.14-4.91,5.71-8.11,7.48a.21.21,0,0,0,0,.37c3,1.65,7.13,6.53,8.11,7.73a.3.3,0,0,0,.44,0c1-1.2,5.09-6.08,8.11-7.73A.21.21,0,0,0,70.89,124.47Z"/><path class="cls-4" d="M88.64,108c-3.2-1.78-7.15-6.34-8.12-7.48a.3.3,0,0,0-.44,0c-1,1.14-4.91,5.7-8.11,7.48a.21.21,0,0,0,0,.37c3,1.65,7.13,6.53,8.11,7.73a.3.3,0,0,0,.44,0c1-1.2,5.09-6.08,8.11-7.73A.21.21,0,0,0,88.64,108Z"/><path class="cls-4" d="M106.39,108c-3.2-1.78-7.15-6.34-8.12-7.48a.29.29,0,0,0-.43,0c-1,1.14-4.92,5.7-8.12,7.48a.21.21,0,0,0,0,.37c3,1.65,7.13,6.53,8.11,7.73a.3.3,0,0,0,.44,0c1-1.2,5.09-6.08,8.11-7.73A.21.21,0,0,0,106.39,108Z"/><path class="cls-4" d="M88.64,124.47c-3.2-1.77-7.15-6.34-8.12-7.48a.3.3,0,0,0-.44,0c-1,1.14-4.91,5.71-8.11,7.48a.21.21,0,0,0,0,.37c3,1.65,7.13,6.53,8.11,7.73a.3.3,0,0,0,.44,0c1-1.2,5.09-6.08,8.11-7.73A.21.21,0,0,0,88.64,124.47Z"/><path class="cls-4" d="M106.39,124.47c-3.2-1.77-7.15-6.34-8.12-7.48a.29.29,0,0,0-.43,0c-1,1.14-4.92,5.71-8.12,7.48a.21.21,0,0,0,0,.37c3,1.65,7.13,6.53,8.11,7.73a.3.3,0,0,0,.44,0c1-1.2,5.09-6.08,8.11-7.73A.21.21,0,0,0,106.39,124.47Z"/><path class="cls-4" d="M124.14,108c-3.2-1.78-7.15-6.34-8.12-7.48a.29.29,0,0,0-.43,0c-1,1.14-4.92,5.7-8.12,7.48a.21.21,0,0,0,0,.37c3,1.65,7.13,6.53,8.11,7.73a.31.31,0,0,0,.45,0c1-1.2,5.08-6.08,8.11-7.73A.21.21,0,0,0,124.14,108Z"/><path class="cls-4" d="M141.89,108c-3.2-1.78-7.15-6.34-8.12-7.48a.29.29,0,0,0-.43,0c-1,1.14-4.92,5.7-8.12,7.48a.21.21,0,0,0,0,.37c3,1.65,7.13,6.53,8.11,7.73a.31.31,0,0,0,.45,0c1-1.2,5.08-6.08,8.11-7.73A.21.21,0,0,0,141.89,108Z"/><path class="cls-4" d="M124.14,124.47c-3.2-1.77-7.15-6.34-8.12-7.48a.29.29,0,0,0-.43,0c-1,1.14-4.92,5.71-8.12,7.48a.21.21,0,0,0,0,.37c3,1.65,7.13,6.53,8.11,7.73a.31.31,0,0,0,.45,0c1-1.2,5.08-6.08,8.11-7.73A.21.21,0,0,0,124.14,124.47Z"/><path class="cls-4" d="M141.89,124.47c-3.2-1.77-7.15-6.34-8.12-7.48a.29.29,0,0,0-.43,0c-1,1.14-4.92,5.71-8.12,7.48a.21.21,0,0,0,0,.37c3,1.65,7.13,6.53,8.11,7.73a.31.31,0,0,0,.45,0c1-1.2,5.08-6.08,8.11-7.73A.21.21,0,0,0,141.89,124.47Z"/><path class="cls-4" d="M17.63,141.12c-3.19-1.78-7.15-6.34-8.11-7.49a.31.31,0,0,0-.44,0c-1,1.15-4.91,5.71-8.11,7.49a.21.21,0,0,0,0,.37c3,1.65,7.12,6.52,8.11,7.73a.3.3,0,0,0,.44,0c1-1.21,5.09-6.08,8.11-7.73A.2.2,0,0,0,17.63,141.12Z"/><path class="cls-4" d="M35.38,141.12c-3.19-1.78-7.15-6.34-8.11-7.49a.31.31,0,0,0-.44,0c-1,1.15-4.91,5.71-8.11,7.49a.21.21,0,0,0,0,.37c3,1.65,7.12,6.52,8.11,7.73a.3.3,0,0,0,.44,0c1-1.21,5.09-6.08,8.11-7.73A.2.2,0,0,0,35.38,141.12Z"/><path class="cls-4" d="M17.63,157.64c-3.19-1.78-7.15-6.34-8.11-7.48a.3.3,0,0,0-.44,0c-1,1.14-4.91,5.7-8.11,7.48A.21.21,0,0,0,1,158c3,1.65,7.12,6.53,8.11,7.73a.3.3,0,0,0,.44,0c1-1.2,5.09-6.08,8.11-7.73A.2.2,0,0,0,17.63,157.64Z"/><path class="cls-4" d="M35.38,157.64c-3.19-1.78-7.15-6.34-8.11-7.48a.3.3,0,0,0-.44,0c-1,1.14-4.91,5.7-8.11,7.48a.21.21,0,0,0,0,.37c3,1.65,7.12,6.53,8.11,7.73a.3.3,0,0,0,.44,0c1-1.2,5.09-6.08,8.11-7.73A.2.2,0,0,0,35.38,157.64Z"/><path class="cls-4" d="M53.14,141.12c-3.2-1.78-7.16-6.34-8.12-7.49a.31.31,0,0,0-.44,0c-1,1.15-4.91,5.71-8.11,7.49a.21.21,0,0,0,0,.37c3,1.65,7.13,6.52,8.11,7.73a.3.3,0,0,0,.44,0c1-1.21,5.09-6.08,8.11-7.73A.21.21,0,0,0,53.14,141.12Z"/><path class="cls-4" d="M70.89,141.12c-3.2-1.78-7.15-6.34-8.12-7.49a.31.31,0,0,0-.44,0c-1,1.15-4.91,5.71-8.11,7.49a.21.21,0,0,0,0,.37c3,1.65,7.13,6.52,8.11,7.73a.3.3,0,0,0,.44,0c1-1.21,5.09-6.08,8.11-7.73A.21.21,0,0,0,70.89,141.12Z"/><path class="cls-4" d="M53.14,157.64c-3.2-1.78-7.16-6.34-8.12-7.48a.3.3,0,0,0-.44,0c-1,1.14-4.91,5.7-8.11,7.48a.21.21,0,0,0,0,.37c3,1.65,7.13,6.53,8.11,7.73a.3.3,0,0,0,.44,0c1-1.2,5.09-6.08,8.11-7.73A.21.21,0,0,0,53.14,157.64Z"/><path class="cls-4" d="M70.89,157.64c-3.2-1.78-7.15-6.34-8.12-7.48a.3.3,0,0,0-.44,0c-1,1.14-4.91,5.7-8.11,7.48a.21.21,0,0,0,0,.37c3,1.65,7.13,6.53,8.11,7.73a.3.3,0,0,0,.44,0c1-1.2,5.09-6.08,8.11-7.73A.21.21,0,0,0,70.89,157.64Z"/><path class="cls-4" d="M88.64,141.12c-3.2-1.78-7.15-6.34-8.12-7.49a.31.31,0,0,0-.44,0c-1,1.15-4.91,5.71-8.11,7.49a.21.21,0,0,0,0,.37c3,1.65,7.13,6.52,8.11,7.73a.3.3,0,0,0,.44,0c1-1.21,5.09-6.08,8.11-7.73A.21.21,0,0,0,88.64,141.12Z"/><path class="cls-4" d="M106.39,141.12c-3.2-1.78-7.15-6.34-8.12-7.49a.3.3,0,0,0-.43,0c-1,1.15-4.92,5.71-8.12,7.49a.21.21,0,0,0,0,.37c3,1.65,7.13,6.52,8.11,7.73a.3.3,0,0,0,.44,0c1-1.21,5.09-6.08,8.11-7.73A.21.21,0,0,0,106.39,141.12Z"/><path class="cls-4" d="M88.64,157.64c-3.2-1.78-7.15-6.34-8.12-7.48a.3.3,0,0,0-.44,0c-1,1.14-4.91,5.7-8.11,7.48a.21.21,0,0,0,0,.37c3,1.65,7.13,6.53,8.11,7.73a.3.3,0,0,0,.44,0c1-1.2,5.09-6.08,8.11-7.73A.21.21,0,0,0,88.64,157.64Z"/><path class="cls-4" d="M106.39,157.64c-3.2-1.78-7.15-6.34-8.12-7.48a.29.29,0,0,0-.43,0c-1,1.14-4.92,5.7-8.12,7.48a.21.21,0,0,0,0,.37c3,1.65,7.13,6.53,8.11,7.73a.3.3,0,0,0,.44,0c1-1.2,5.09-6.08,8.11-7.73A.21.21,0,0,0,106.39,157.64Z"/><path class="cls-4" d="M124.14,141.12c-3.2-1.78-7.15-6.34-8.12-7.49a.3.3,0,0,0-.43,0c-1,1.15-4.92,5.71-8.12,7.49a.21.21,0,0,0,0,.37c3,1.65,7.13,6.52,8.11,7.73a.31.31,0,0,0,.45,0c1-1.21,5.08-6.08,8.11-7.73A.21.21,0,0,0,124.14,141.12Z"/><path class="cls-4" d="M141.89,141.12c-3.2-1.78-7.15-6.34-8.12-7.49a.3.3,0,0,0-.43,0c-1,1.15-4.92,5.71-8.12,7.49a.21.21,0,0,0,0,.37c3,1.65,7.13,6.52,8.11,7.73a.31.31,0,0,0,.45,0c1-1.21,5.08-6.08,8.11-7.73A.21.21,0,0,0,141.89,141.12Z"/><path class="cls-4" d="M124.14,157.64c-3.2-1.78-7.15-6.34-8.12-7.48a.29.29,0,0,0-.43,0c-1,1.14-4.92,5.7-8.12,7.48a.21.21,0,0,0,0,.37c3,1.65,7.13,6.53,8.11,7.73a.31.31,0,0,0,.45,0c1-1.2,5.08-6.08,8.11-7.73A.21.21,0,0,0,124.14,157.64Z"/><path class="cls-4" d="M141.89,157.64c-3.2-1.78-7.15-6.34-8.12-7.48a.29.29,0,0,0-.43,0c-1,1.14-4.92,5.7-8.12,7.48a.21.21,0,0,0,0,.37c3,1.65,7.13,6.53,8.11,7.73a.31.31,0,0,0,.45,0c1-1.2,5.08-6.08,8.11-7.73A.21.21,0,0,0,141.89,157.64Z"/><path class="cls-4" d="M17.63,174.29c-3.19-1.78-7.15-6.34-8.11-7.49a.3.3,0,0,0-.44,0c-1,1.15-4.91,5.71-8.11,7.49a.21.21,0,0,0,0,.37c3,1.65,7.12,6.52,8.11,7.73a.3.3,0,0,0,.44,0c1-1.21,5.09-6.08,8.11-7.73A.2.2,0,0,0,17.63,174.29Z"/><path class="cls-4" d="M35.38,174.29c-3.19-1.78-7.15-6.34-8.11-7.49a.3.3,0,0,0-.44,0c-1,1.15-4.91,5.71-8.11,7.49a.21.21,0,0,0,0,.37c3,1.65,7.12,6.52,8.11,7.73a.3.3,0,0,0,.44,0c1-1.21,5.09-6.08,8.11-7.73A.2.2,0,0,0,35.38,174.29Z"/><path class="cls-4" d="M17.63,190.81c-3.19-1.78-7.15-6.34-8.11-7.49a.3.3,0,0,0-.44,0c-1,1.15-4.91,5.71-8.11,7.49a.21.21,0,0,0,0,.37c3,1.65,7.12,6.52,8.11,7.73a.3.3,0,0,0,.44,0c1-1.21,5.09-6.08,8.11-7.73A.2.2,0,0,0,17.63,190.81Z"/><path class="cls-4" d="M35.38,190.81c-3.19-1.78-7.15-6.34-8.11-7.49a.3.3,0,0,0-.44,0c-1,1.15-4.91,5.71-8.11,7.49a.21.21,0,0,0,0,.37c3,1.65,7.12,6.52,8.11,7.73a.3.3,0,0,0,.44,0c1-1.21,5.09-6.08,8.11-7.73A.2.2,0,0,0,35.38,190.81Z"/><path class="cls-4" d="M53.14,174.29C49.94,172.51,46,168,45,166.8a.3.3,0,0,0-.44,0c-1,1.15-4.91,5.71-8.11,7.49a.21.21,0,0,0,0,.37c3,1.65,7.13,6.52,8.11,7.73a.3.3,0,0,0,.44,0c1-1.21,5.09-6.08,8.11-7.73A.21.21,0,0,0,53.14,174.29Z"/><path class="cls-4" d="M70.89,174.29c-3.2-1.78-7.15-6.34-8.12-7.49a.3.3,0,0,0-.44,0c-1,1.15-4.91,5.71-8.11,7.49a.21.21,0,0,0,0,.37c3,1.65,7.13,6.52,8.11,7.73a.3.3,0,0,0,.44,0c1-1.21,5.09-6.08,8.11-7.73A.21.21,0,0,0,70.89,174.29Z"/><path class="cls-4" d="M53.14,190.81C49.94,189,46,184.47,45,183.32a.3.3,0,0,0-.44,0c-1,1.15-4.91,5.71-8.11,7.49a.21.21,0,0,0,0,.37c3,1.65,7.13,6.52,8.11,7.73a.3.3,0,0,0,.44,0c1-1.21,5.09-6.08,8.11-7.73A.21.21,0,0,0,53.14,190.81Z"/><path class="cls-4" d="M70.89,190.81c-3.2-1.78-7.15-6.34-8.12-7.49a.3.3,0,0,0-.44,0c-1,1.15-4.91,5.71-8.11,7.49a.21.21,0,0,0,0,.37c3,1.65,7.13,6.52,8.11,7.73a.3.3,0,0,0,.44,0c1-1.21,5.09-6.08,8.11-7.73A.21.21,0,0,0,70.89,190.81Z"/><path class="cls-4" d="M88.64,174.29c-3.2-1.78-7.15-6.34-8.12-7.49a.3.3,0,0,0-.44,0c-1,1.15-4.91,5.71-8.11,7.49a.21.21,0,0,0,0,.37c3,1.65,7.13,6.52,8.11,7.73a.3.3,0,0,0,.44,0c1-1.21,5.09-6.08,8.11-7.73A.21.21,0,0,0,88.64,174.29Z"/><path class="cls-4" d="M106.39,174.29c-3.2-1.78-7.15-6.34-8.12-7.49a.29.29,0,0,0-.43,0c-1,1.15-4.92,5.71-8.12,7.49a.21.21,0,0,0,0,.37c3,1.65,7.13,6.52,8.11,7.73a.3.3,0,0,0,.44,0c1-1.21,5.09-6.08,8.11-7.73A.21.21,0,0,0,106.39,174.29Z"/><path class="cls-4" d="M88.64,190.81c-3.2-1.78-7.15-6.34-8.12-7.49a.3.3,0,0,0-.44,0c-1,1.15-4.91,5.71-8.11,7.49a.21.21,0,0,0,0,.37c3,1.65,7.13,6.52,8.11,7.73a.3.3,0,0,0,.44,0c1-1.21,5.09-6.08,8.11-7.73A.21.21,0,0,0,88.64,190.81Z"/><path class="cls-4" d="M106.39,190.81c-3.2-1.78-7.15-6.34-8.12-7.49a.29.29,0,0,0-.43,0c-1,1.15-4.92,5.71-8.12,7.49a.21.21,0,0,0,0,.37c3,1.65,7.13,6.52,8.11,7.73a.3.3,0,0,0,.44,0c1-1.21,5.09-6.08,8.11-7.73A.21.21,0,0,0,106.39,190.81Z"/><path class="cls-4" d="M124.14,174.29c-3.2-1.78-7.15-6.34-8.12-7.49a.29.29,0,0,0-.43,0c-1,1.15-4.92,5.71-8.12,7.49a.21.21,0,0,0,0,.37c3,1.65,7.13,6.52,8.11,7.73a.31.31,0,0,0,.45,0c1-1.21,5.08-6.08,8.11-7.73A.21.21,0,0,0,124.14,174.29Z"/><path class="cls-4" d="M141.89,174.29c-3.2-1.78-7.15-6.34-8.12-7.49a.29.29,0,0,0-.43,0c-1,1.15-4.92,5.71-8.12,7.49a.21.21,0,0,0,0,.37c3,1.65,7.13,6.52,8.11,7.73a.31.31,0,0,0,.45,0c1-1.21,5.08-6.08,8.11-7.73A.21.21,0,0,0,141.89,174.29Z"/><path class="cls-4" d="M124.14,190.81c-3.2-1.78-7.15-6.34-8.12-7.49a.29.29,0,0,0-.43,0c-1,1.15-4.92,5.71-8.12,7.49a.21.21,0,0,0,0,.37c3,1.65,7.13,6.52,8.11,7.73a.31.31,0,0,0,.45,0c1-1.21,5.08-6.08,8.11-7.73A.21.21,0,0,0,124.14,190.81Z"/><path class="cls-4" d="M141.89,190.81c-3.2-1.78-7.15-6.34-8.12-7.49a.29.29,0,0,0-.43,0c-1,1.15-4.92,5.71-8.12,7.49a.21.21,0,0,0,0,.37c3,1.65,7.13,6.52,8.11,7.73a.31.31,0,0,0,.45,0c1-1.21,5.08-6.08,8.11-7.73A.21.21,0,0,0,141.89,190.81Z"/></g><path class="cls-5" d="M122.76,9a11.11,11.11,0,0,1,11.1,11.1V179.9a11.11,11.11,0,0,1-11.1,11.1H20.1A11.11,11.11,0,0,1,9,179.9V20.1A11.11,11.11,0,0,1,20.1,9H122.76m0-9H20.1A20.1,20.1,0,0,0,0,20.1V179.9A20.1,20.1,0,0,0,20.1,200H122.76a20.1,20.1,0,0,0,20.1-20.1V20.1A20.1,20.1,0,0,0,122.76,0Z"/><g class="cls-6"><path class="cls-7" d="M107,19.37a16.12,16.12,0,0,1,16.1,16.1V164.53a16.12,16.12,0,0,1-16.1,16.1H35.85a16.12,16.12,0,0,1-16.1-16.1V35.47a16.12,16.12,0,0,1,16.1-16.1H107m0-4H35.85a20.1,20.1,0,0,0-20.1,20.1V164.53a20.1,20.1,0,0,0,20.1,20.1H107a20.1,20.1,0,0,0,20.1-20.1V35.47A20.1,20.1,0,0,0,107,15.37Z"/></g></svg>